%TF.GenerationSoftware,KiCad,Pcbnew,7.0.8*%
%TF.CreationDate,2023-10-16T07:21:23+01:00*%
%TF.ProjectId,SYNTH_PWR_MKII,53594e54-485f-4505-9752-5f4d4b49492e,1.0*%
%TF.SameCoordinates,Original*%
%TF.FileFunction,Soldermask,Bot*%
%TF.FilePolarity,Negative*%
%FSLAX46Y46*%
G04 Gerber Fmt 4.6, Leading zero omitted, Abs format (unit mm)*
G04 Created by KiCad (PCBNEW 7.0.8) date 2023-10-16 07:21:23*
%MOMM*%
%LPD*%
G01*
G04 APERTURE LIST*
G04 Aperture macros list*
%AMRoundRect*
0 Rectangle with rounded corners*
0 $1 Rounding radius*
0 $2 $3 $4 $5 $6 $7 $8 $9 X,Y pos of 4 corners*
0 Add a 4 corners polygon primitive as box body*
4,1,4,$2,$3,$4,$5,$6,$7,$8,$9,$2,$3,0*
0 Add four circle primitives for the rounded corners*
1,1,$1+$1,$2,$3*
1,1,$1+$1,$4,$5*
1,1,$1+$1,$6,$7*
1,1,$1+$1,$8,$9*
0 Add four rect primitives between the rounded corners*
20,1,$1+$1,$2,$3,$4,$5,0*
20,1,$1+$1,$4,$5,$6,$7,0*
20,1,$1+$1,$6,$7,$8,$9,0*
20,1,$1+$1,$8,$9,$2,$3,0*%
G04 Aperture macros list end*
%ADD10R,2.500000X2.500000*%
%ADD11C,2.500000*%
%ADD12R,1.600000X1.600000*%
%ADD13C,1.600000*%
%ADD14RoundRect,0.102000X-1.125000X-1.125000X1.125000X-1.125000X1.125000X1.125000X-1.125000X1.125000X0*%
%ADD15C,2.454000*%
%ADD16R,2.000000X2.000000*%
%ADD17C,2.000000*%
%ADD18C,3.200000*%
%ADD19R,1.800000X4.400000*%
%ADD20O,1.800000X4.000000*%
%ADD21O,4.000000X1.800000*%
%ADD22R,4.400000X1.800000*%
G04 APERTURE END LIST*
D10*
%TO.C,J2*%
X101500000Y-111000000D03*
D11*
X101500000Y-116000000D03*
%TD*%
D12*
%TO.C,C4*%
X176800000Y-109552651D03*
D13*
X176800000Y-106052651D03*
%TD*%
D14*
%TO.C,PS1*%
X123530000Y-119960000D03*
D15*
X123530000Y-114880000D03*
X123530000Y-104720000D03*
X169250000Y-102180000D03*
X169250000Y-112340000D03*
X169250000Y-122500000D03*
%TD*%
D16*
%TO.C,C2*%
X178500000Y-100367677D03*
D17*
X178500000Y-95367677D03*
%TD*%
D12*
%TO.C,C5*%
X200647349Y-108100000D03*
D13*
X204147349Y-108100000D03*
%TD*%
D18*
%TO.C,H4*%
X100000000Y-100000000D03*
%TD*%
D19*
%TO.C,J5*%
X221650000Y-115600000D03*
D20*
X227450000Y-115600000D03*
D21*
X224650000Y-110800000D03*
%TD*%
D12*
%TO.C,C8*%
X200647349Y-117100000D03*
D13*
X204147349Y-117100000D03*
%TD*%
D12*
%TO.C,C7*%
X177000000Y-129652651D03*
D13*
X177000000Y-126152651D03*
%TD*%
D16*
%TO.C,C1*%
X113100000Y-119732323D03*
D17*
X113100000Y-124732323D03*
%TD*%
D16*
%TO.C,C3*%
X178500000Y-120367677D03*
D17*
X178500000Y-115367677D03*
%TD*%
D18*
%TO.C,H2*%
X100000000Y-125000000D03*
%TD*%
%TO.C,H1*%
X230000000Y-125000000D03*
%TD*%
D10*
%TO.C,J4*%
X222000000Y-98000000D03*
D11*
X217000000Y-98000000D03*
X212000000Y-98000000D03*
X207000000Y-98000000D03*
%TD*%
D10*
%TO.C,J3*%
X206660000Y-127000000D03*
D11*
X211660000Y-127000000D03*
X216660000Y-127000000D03*
X221660000Y-127000000D03*
%TD*%
D22*
%TO.C,J1*%
X111600000Y-105350000D03*
D21*
X111600000Y-99550000D03*
D20*
X106800000Y-102350000D03*
%TD*%
D18*
%TO.C,H3*%
X230000000Y-100000000D03*
%TD*%
M02*
