M48
; DRILL file {KiCad 7.0.8} date 2023 October 16, Monday 07:21:47
; FORMAT={-:-/ absolute / metric / decimal}
; #@! TF.CreationDate,2023-10-16T07:21:47+01:00
; #@! TF.GenerationSoftware,Kicad,Pcbnew,7.0.8
; #@! TF.FileFunction,Plated,1,2,PTH
FMAT,2
METRIC
; #@! TA.AperFunction,Plated,PTH,ViaDrill
T1C0.300
; #@! TA.AperFunction,Plated,PTH,ViaDrill
T2C0.400
; #@! TA.AperFunction,Plated,PTH,ComponentDrill
T3C0.800
; #@! TA.AperFunction,Plated,PTH,ComponentDrill
T4C1.000
; #@! TA.AperFunction,Plated,PTH,ComponentDrill
T5C1.300
; #@! TA.AperFunction,Plated,PTH,ComponentDrill
T6C1.500
%
G90
G05
T1
X188.45Y-117.15
X188.45Y-122.0
X188.5Y-99.0
X194.0Y-99.0
X194.0Y-117.15
X194.0Y-122.0
X198.1Y-111.8
X200.0Y-125.4
X209.5Y-115.5
X213.75Y-115.59
X218.0Y-115.5
X232.07Y-106.5
T2
X189.0Y-96.0
X194.0Y-96.0
T3
X176.8Y-106.053
X176.8Y-109.553
X177.0Y-126.153
X177.0Y-129.653
X200.647Y-108.1
X200.647Y-117.1
X204.147Y-108.1
X204.147Y-117.1
T4
X113.1Y-119.732
X113.1Y-124.732
X178.5Y-95.368
X178.5Y-100.368
X178.5Y-115.368
X178.5Y-120.368
T5
X101.5Y-111.0
X101.5Y-116.0
X206.66Y-127.0
X207.0Y-98.0
X211.66Y-127.0
X212.0Y-98.0
X216.66Y-127.0
X217.0Y-98.0
X221.66Y-127.0
X222.0Y-98.0
T6
X123.53Y-104.72
X123.53Y-114.88
X123.53Y-119.96
X169.25Y-102.18
X169.25Y-112.34
X169.25Y-122.5
T3
G00X106.8Y-101.25
M15
G01X106.8Y-103.45
M16
G05
G00X112.7Y-99.55
M15
G01X110.5Y-99.55
M16
G05
G00X112.9Y-105.35
M15
G01X110.3Y-105.35
M16
G05
G00X221.65Y-116.9
M15
G01X221.65Y-114.3
M16
G05
G00X225.75Y-110.8
M15
G01X223.55Y-110.8
M16
G05
G00X227.45Y-116.7
M15
G01X227.45Y-114.5
M16
G05
T0
M30
