%TF.GenerationSoftware,KiCad,Pcbnew,7.0.8*%
%TF.CreationDate,2023-10-16T07:21:23+01:00*%
%TF.ProjectId,SYNTH_PWR_MKII,53594e54-485f-4505-9752-5f4d4b49492e,1.0*%
%TF.SameCoordinates,Original*%
%TF.FileFunction,Copper,L2,Bot*%
%TF.FilePolarity,Positive*%
%FSLAX46Y46*%
G04 Gerber Fmt 4.6, Leading zero omitted, Abs format (unit mm)*
G04 Created by KiCad (PCBNEW 7.0.8) date 2023-10-16 07:21:23*
%MOMM*%
%LPD*%
G01*
G04 APERTURE LIST*
%TA.AperFunction,ComponentPad*%
%ADD10R,2.500000X2.500000*%
%TD*%
%TA.AperFunction,ComponentPad*%
%ADD11C,2.500000*%
%TD*%
%TA.AperFunction,ComponentPad*%
%ADD12R,1.600000X1.600000*%
%TD*%
%TA.AperFunction,ComponentPad*%
%ADD13C,1.600000*%
%TD*%
%TA.AperFunction,ComponentPad*%
%ADD14R,2.250000X2.250000*%
%TD*%
%TA.AperFunction,ComponentPad*%
%ADD15C,2.250000*%
%TD*%
%TA.AperFunction,ComponentPad*%
%ADD16R,2.000000X2.000000*%
%TD*%
%TA.AperFunction,ComponentPad*%
%ADD17C,2.000000*%
%TD*%
%TA.AperFunction,ComponentPad*%
%ADD18R,1.800000X4.400000*%
%TD*%
%TA.AperFunction,ComponentPad*%
%ADD19O,1.800000X4.000000*%
%TD*%
%TA.AperFunction,ComponentPad*%
%ADD20O,4.000000X1.800000*%
%TD*%
%TA.AperFunction,ComponentPad*%
%ADD21R,4.400000X1.800000*%
%TD*%
%TA.AperFunction,ViaPad*%
%ADD22C,0.700000*%
%TD*%
%TA.AperFunction,ViaPad*%
%ADD23C,0.800000*%
%TD*%
%TA.AperFunction,Conductor*%
%ADD24C,1.000000*%
%TD*%
G04 APERTURE END LIST*
D10*
%TO.P,J2,1,Pin_1*%
%TO.N,/+18V_IN*%
X101500000Y-111000000D03*
D11*
%TO.P,J2,2,Pin_2*%
%TO.N,GND*%
X101500000Y-116000000D03*
%TD*%
D12*
%TO.P,C4,1*%
%TO.N,/VIN_18V*%
X176800000Y-109552651D03*
D13*
%TO.P,C4,2*%
%TO.N,GND*%
X176800000Y-106052651D03*
%TD*%
D14*
%TO.P,PS1,1,VIN*%
%TO.N,/VIN_18V*%
X123530000Y-119960000D03*
D15*
%TO.P,PS1,2,GND*%
%TO.N,GND*%
X123530000Y-114880000D03*
%TO.P,PS1,3,CTRL*%
%TO.N,unconnected-(PS1-CTRL-Pad3)*%
X123530000Y-104720000D03*
%TO.P,PS1,4,-VO*%
%TO.N,/VOUT_-12V*%
X169250000Y-102180000D03*
%TO.P,PS1,5,0V*%
%TO.N,GND*%
X169250000Y-112340000D03*
%TO.P,PS1,6,+VO*%
%TO.N,/VOUT_+12V*%
X169250000Y-122500000D03*
%TD*%
D16*
%TO.P,C2,1*%
%TO.N,GND*%
X178500000Y-100367677D03*
D17*
%TO.P,C2,2*%
%TO.N,/VOUT_-12V*%
X178500000Y-95367677D03*
%TD*%
D12*
%TO.P,C5,1*%
%TO.N,/VOUT_+9V*%
X200647349Y-108100000D03*
D13*
%TO.P,C5,2*%
%TO.N,GND*%
X204147349Y-108100000D03*
%TD*%
D18*
%TO.P,J5,1*%
%TO.N,GND*%
X221650000Y-115600000D03*
D19*
%TO.P,J5,2*%
%TO.N,/VOUT_+9V*%
X227450000Y-115600000D03*
D20*
%TO.P,J5,3*%
%TO.N,unconnected-(J5-Pad3)*%
X224650000Y-110800000D03*
%TD*%
D12*
%TO.P,C8,1*%
%TO.N,/VOUT_+5V*%
X200647349Y-117100000D03*
D13*
%TO.P,C8,2*%
%TO.N,GND*%
X204147349Y-117100000D03*
%TD*%
D12*
%TO.P,C7,1*%
%TO.N,/VIN_18V*%
X177000000Y-129652651D03*
D13*
%TO.P,C7,2*%
%TO.N,GND*%
X177000000Y-126152651D03*
%TD*%
D16*
%TO.P,C1,1*%
%TO.N,/VIN_18V*%
X113100000Y-119732323D03*
D17*
%TO.P,C1,2*%
%TO.N,GND*%
X113100000Y-124732323D03*
%TD*%
D16*
%TO.P,C3,1*%
%TO.N,/VOUT_+12V*%
X178500000Y-120367677D03*
D17*
%TO.P,C3,2*%
%TO.N,GND*%
X178500000Y-115367677D03*
%TD*%
D10*
%TO.P,J4,1,Pin_1*%
%TO.N,GND*%
X222000000Y-98000000D03*
D11*
%TO.P,J4,2,Pin_2*%
%TO.N,/VOUT_-12V*%
X217000000Y-98000000D03*
%TO.P,J4,3,Pin_3*%
%TO.N,/VOUT_+5V*%
X212000000Y-98000000D03*
%TO.P,J4,4,Pin_4*%
%TO.N,/VOUT_+12V*%
X207000000Y-98000000D03*
%TD*%
D10*
%TO.P,J3,1,Pin_1*%
%TO.N,/VOUT_+12V*%
X206660000Y-127000000D03*
D11*
%TO.P,J3,2,Pin_2*%
%TO.N,/VOUT_+5V*%
X211660000Y-127000000D03*
%TO.P,J3,3,Pin_3*%
%TO.N,/VOUT_-12V*%
X216660000Y-127000000D03*
%TO.P,J3,4,Pin_4*%
%TO.N,GND*%
X221660000Y-127000000D03*
%TD*%
D21*
%TO.P,J1,1*%
%TO.N,/+18V_IN*%
X111600000Y-105350000D03*
D20*
%TO.P,J1,2*%
%TO.N,GND*%
X111600000Y-99550000D03*
D19*
%TO.P,J1,3*%
X106800000Y-102350000D03*
%TD*%
D22*
%TO.N,GND*%
X198100000Y-111800000D03*
X209500000Y-115500000D03*
X213750000Y-115590000D03*
X194000000Y-117150000D03*
X188450000Y-122000000D03*
X188450000Y-117150000D03*
X194000000Y-122000000D03*
X200000000Y-125400000D03*
D23*
X189000000Y-96000000D03*
X194000000Y-96000000D03*
D22*
X218000000Y-115500000D03*
X194000000Y-99000000D03*
X232070000Y-106500000D03*
X188500000Y-99000000D03*
%TD*%
D24*
%TO.N,/VOUT_-12V*%
X178500000Y-95367677D02*
X179917677Y-93950000D01*
X212950000Y-93950000D02*
X217000000Y-98000000D01*
X179917677Y-93950000D02*
X212950000Y-93950000D01*
%TO.N,/VOUT_+12V*%
X178500000Y-120367677D02*
X200027677Y-120367677D01*
X200027677Y-120367677D02*
X206660000Y-127000000D01*
%TD*%
%TA.AperFunction,Conductor*%
%TO.N,GND*%
G36*
X232001735Y-92300598D02*
G01*
X232142940Y-92308527D01*
X232298780Y-92317279D01*
X232305670Y-92318055D01*
X232554372Y-92360311D01*
X232597257Y-92367598D01*
X232604041Y-92369146D01*
X232888238Y-92451022D01*
X232888242Y-92451023D01*
X232894809Y-92453322D01*
X233031428Y-92509911D01*
X233168060Y-92566505D01*
X233174309Y-92569515D01*
X233343442Y-92662991D01*
X233433170Y-92712582D01*
X233439062Y-92716284D01*
X233680268Y-92887429D01*
X233685708Y-92891767D01*
X233906236Y-93088843D01*
X233911156Y-93093763D01*
X234108232Y-93314291D01*
X234112570Y-93319731D01*
X234283715Y-93560937D01*
X234287417Y-93566829D01*
X234430480Y-93825682D01*
X234433497Y-93831947D01*
X234433498Y-93831950D01*
X234433499Y-93831951D01*
X234546677Y-94105190D01*
X234548976Y-94111757D01*
X234630853Y-94395958D01*
X234632401Y-94402742D01*
X234681942Y-94694315D01*
X234682721Y-94701229D01*
X234699402Y-94998263D01*
X234699500Y-95001740D01*
X234699500Y-129998258D01*
X234699402Y-130001735D01*
X234682721Y-130298770D01*
X234681942Y-130305684D01*
X234632401Y-130597257D01*
X234630853Y-130604041D01*
X234548976Y-130888242D01*
X234546677Y-130894809D01*
X234433499Y-131168048D01*
X234430480Y-131174317D01*
X234287417Y-131433170D01*
X234283715Y-131439062D01*
X234112570Y-131680268D01*
X234108232Y-131685708D01*
X233911156Y-131906236D01*
X233906236Y-131911156D01*
X233685708Y-132108232D01*
X233680268Y-132112570D01*
X233439062Y-132283715D01*
X233433170Y-132287417D01*
X233174317Y-132430480D01*
X233168048Y-132433499D01*
X232894809Y-132546677D01*
X232888242Y-132548976D01*
X232604041Y-132630853D01*
X232597257Y-132632401D01*
X232305684Y-132681942D01*
X232298770Y-132682721D01*
X232001735Y-132699402D01*
X231998258Y-132699500D01*
X98001739Y-132699500D01*
X97998262Y-132699402D01*
X97701230Y-132682722D01*
X97694315Y-132681943D01*
X97402741Y-132632402D01*
X97395957Y-132630854D01*
X97111756Y-132548977D01*
X97105189Y-132546678D01*
X96870281Y-132449377D01*
X96831946Y-132433498D01*
X96825681Y-132430481D01*
X96566829Y-132287418D01*
X96560937Y-132283716D01*
X96319725Y-132112567D01*
X96314296Y-132108237D01*
X96181945Y-131989961D01*
X96093763Y-131911156D01*
X96088843Y-131906236D01*
X96021631Y-131831027D01*
X95891760Y-131685701D01*
X95887432Y-131680274D01*
X95716283Y-131439062D01*
X95712581Y-131433170D01*
X95575100Y-131184417D01*
X95569514Y-131174310D01*
X95566504Y-131168061D01*
X95477486Y-130953151D01*
X95453321Y-130894810D01*
X95451022Y-130888243D01*
X95369145Y-130604042D01*
X95367597Y-130597258D01*
X95351163Y-130500534D01*
X95351161Y-130500521D01*
X175699500Y-130500521D01*
X175699501Y-130500527D01*
X175705908Y-130560134D01*
X175756202Y-130694979D01*
X175756206Y-130694986D01*
X175842452Y-130810195D01*
X175842455Y-130810198D01*
X175957664Y-130896444D01*
X175957671Y-130896448D01*
X176092517Y-130946742D01*
X176092516Y-130946742D01*
X176099444Y-130947486D01*
X176152127Y-130953151D01*
X177847872Y-130953150D01*
X177907483Y-130946742D01*
X178042331Y-130896447D01*
X178157546Y-130810197D01*
X178243796Y-130694982D01*
X178294091Y-130560134D01*
X178300500Y-130500524D01*
X178300499Y-128804779D01*
X178294091Y-128745168D01*
X178293689Y-128744091D01*
X178243797Y-128610322D01*
X178243793Y-128610315D01*
X178157547Y-128495106D01*
X178157544Y-128495103D01*
X178042335Y-128408857D01*
X178042328Y-128408853D01*
X177907482Y-128358559D01*
X177907483Y-128358559D01*
X177847883Y-128352152D01*
X177847881Y-128352151D01*
X177847873Y-128352151D01*
X177847864Y-128352151D01*
X176152129Y-128352151D01*
X176152123Y-128352152D01*
X176092516Y-128358559D01*
X175957671Y-128408853D01*
X175957664Y-128408857D01*
X175842455Y-128495103D01*
X175842452Y-128495106D01*
X175756206Y-128610315D01*
X175756202Y-128610322D01*
X175705908Y-128745168D01*
X175699501Y-128804767D01*
X175699501Y-128804774D01*
X175699500Y-128804786D01*
X175699500Y-130500521D01*
X95351161Y-130500521D01*
X95318054Y-130305671D01*
X95317278Y-130298781D01*
X95308525Y-130142922D01*
X95300598Y-130001753D01*
X95300500Y-129998276D01*
X95300500Y-125067763D01*
X98145787Y-125067763D01*
X98175413Y-125337013D01*
X98175415Y-125337024D01*
X98243926Y-125599082D01*
X98243928Y-125599088D01*
X98349870Y-125848390D01*
X98490979Y-126079605D01*
X98490986Y-126079615D01*
X98664253Y-126287819D01*
X98664259Y-126287824D01*
X98769240Y-126381887D01*
X98865998Y-126468582D01*
X99091910Y-126618044D01*
X99337176Y-126733020D01*
X99337183Y-126733022D01*
X99337185Y-126733023D01*
X99596557Y-126811057D01*
X99596564Y-126811058D01*
X99596569Y-126811060D01*
X99864561Y-126850500D01*
X99864566Y-126850500D01*
X100067636Y-126850500D01*
X100119133Y-126846730D01*
X100270156Y-126835677D01*
X100407277Y-126805132D01*
X100534546Y-126776782D01*
X100534548Y-126776781D01*
X100534553Y-126776780D01*
X100787558Y-126680014D01*
X101023777Y-126547441D01*
X101238177Y-126381888D01*
X101426186Y-126186881D01*
X101583799Y-125966579D01*
X101657787Y-125822669D01*
X101707649Y-125725690D01*
X101707651Y-125725684D01*
X101707656Y-125725675D01*
X101791547Y-125479772D01*
X101795115Y-125469314D01*
X101795115Y-125469313D01*
X101795118Y-125469305D01*
X101844319Y-125202933D01*
X101854212Y-124932235D01*
X101832216Y-124732328D01*
X111594859Y-124732328D01*
X111615385Y-124980052D01*
X111615387Y-124980061D01*
X111676412Y-125221040D01*
X111776266Y-125448687D01*
X111876564Y-125602205D01*
X112616923Y-124861846D01*
X112640507Y-124942167D01*
X112718239Y-125063121D01*
X112826900Y-125157275D01*
X112957685Y-125217003D01*
X112967466Y-125218409D01*
X112229942Y-125955932D01*
X112276768Y-125992378D01*
X112276770Y-125992379D01*
X112495385Y-126110687D01*
X112495396Y-126110692D01*
X112730506Y-126191406D01*
X112975707Y-126232323D01*
X113224293Y-126232323D01*
X113469493Y-126191406D01*
X113582376Y-126152653D01*
X175695034Y-126152653D01*
X175714858Y-126379250D01*
X175714860Y-126379261D01*
X175773730Y-126598968D01*
X175773734Y-126598977D01*
X175869865Y-126805132D01*
X175869866Y-126805134D01*
X175920973Y-126878122D01*
X175920974Y-126878123D01*
X176602046Y-126197050D01*
X176614835Y-126277799D01*
X176672359Y-126390696D01*
X176761955Y-126480292D01*
X176874852Y-126537816D01*
X176955599Y-126550604D01*
X176274526Y-127231676D01*
X176274526Y-127231677D01*
X176347512Y-127282782D01*
X176347516Y-127282784D01*
X176553673Y-127378916D01*
X176553682Y-127378920D01*
X176773389Y-127437790D01*
X176773400Y-127437792D01*
X176999998Y-127457617D01*
X177000002Y-127457617D01*
X177226599Y-127437792D01*
X177226610Y-127437790D01*
X177446317Y-127378920D01*
X177446331Y-127378915D01*
X177652478Y-127282787D01*
X177725472Y-127231676D01*
X177044401Y-126550604D01*
X177125148Y-126537816D01*
X177238045Y-126480292D01*
X177327641Y-126390696D01*
X177385165Y-126277799D01*
X177397953Y-126197051D01*
X178079025Y-126878123D01*
X178130136Y-126805129D01*
X178226264Y-126598982D01*
X178226269Y-126598968D01*
X178285139Y-126379261D01*
X178285141Y-126379250D01*
X178304966Y-126152653D01*
X178304966Y-126152648D01*
X178285141Y-125926051D01*
X178285139Y-125926040D01*
X178226269Y-125706333D01*
X178226265Y-125706324D01*
X178130133Y-125500167D01*
X178130131Y-125500163D01*
X178079026Y-125427177D01*
X178079025Y-125427177D01*
X177397953Y-126108249D01*
X177385165Y-126027503D01*
X177327641Y-125914606D01*
X177238045Y-125825010D01*
X177125148Y-125767486D01*
X177044400Y-125754697D01*
X177725472Y-125073625D01*
X177725471Y-125073624D01*
X177652483Y-125022517D01*
X177652481Y-125022516D01*
X177446326Y-124926385D01*
X177446317Y-124926381D01*
X177226610Y-124867511D01*
X177226599Y-124867509D01*
X177000002Y-124847685D01*
X176999998Y-124847685D01*
X176773400Y-124867509D01*
X176773389Y-124867511D01*
X176553682Y-124926381D01*
X176553673Y-124926385D01*
X176347513Y-125022519D01*
X176274527Y-125073623D01*
X176274526Y-125073624D01*
X176955600Y-125754697D01*
X176874852Y-125767486D01*
X176761955Y-125825010D01*
X176672359Y-125914606D01*
X176614835Y-126027503D01*
X176602046Y-126108250D01*
X175920973Y-125427177D01*
X175920972Y-125427178D01*
X175869868Y-125500164D01*
X175773734Y-125706324D01*
X175773730Y-125706333D01*
X175714860Y-125926040D01*
X175714858Y-125926051D01*
X175695034Y-126152648D01*
X175695034Y-126152653D01*
X113582376Y-126152653D01*
X113704603Y-126110692D01*
X113704614Y-126110687D01*
X113923228Y-125992380D01*
X113923231Y-125992378D01*
X113970056Y-125955932D01*
X113232533Y-125218409D01*
X113242315Y-125217003D01*
X113373100Y-125157275D01*
X113481761Y-125063121D01*
X113559493Y-124942167D01*
X113583076Y-124861847D01*
X114323434Y-125602205D01*
X114423731Y-125448692D01*
X114523587Y-125221040D01*
X114584612Y-124980061D01*
X114584614Y-124980052D01*
X114605141Y-124732328D01*
X114605141Y-124732317D01*
X114584614Y-124484593D01*
X114584612Y-124484584D01*
X114523587Y-124243605D01*
X114423731Y-124015953D01*
X114323434Y-123862439D01*
X113583076Y-124602798D01*
X113559493Y-124522479D01*
X113481761Y-124401525D01*
X113373100Y-124307371D01*
X113242315Y-124247643D01*
X113232534Y-124246236D01*
X113970057Y-123508713D01*
X113970056Y-123508712D01*
X113923229Y-123472266D01*
X113704614Y-123353958D01*
X113704603Y-123353953D01*
X113469493Y-123273239D01*
X113224293Y-123232323D01*
X112975707Y-123232323D01*
X112730506Y-123273239D01*
X112495396Y-123353953D01*
X112495390Y-123353955D01*
X112276761Y-123472272D01*
X112229942Y-123508711D01*
X112229942Y-123508713D01*
X112967466Y-124246236D01*
X112957685Y-124247643D01*
X112826900Y-124307371D01*
X112718239Y-124401525D01*
X112640507Y-124522479D01*
X112616923Y-124602798D01*
X111876564Y-123862439D01*
X111776267Y-124015955D01*
X111676412Y-124243605D01*
X111615387Y-124484584D01*
X111615385Y-124484593D01*
X111594859Y-124732317D01*
X111594859Y-124732328D01*
X101832216Y-124732328D01*
X101824586Y-124662982D01*
X101756072Y-124400912D01*
X101650130Y-124151610D01*
X101509018Y-123920390D01*
X101460791Y-123862439D01*
X101335746Y-123712180D01*
X101335740Y-123712175D01*
X101134002Y-123531418D01*
X100908092Y-123381957D01*
X100908090Y-123381956D01*
X100662824Y-123266980D01*
X100662819Y-123266978D01*
X100662814Y-123266976D01*
X100403442Y-123188942D01*
X100403428Y-123188939D01*
X100287791Y-123171921D01*
X100135439Y-123149500D01*
X99932369Y-123149500D01*
X99932364Y-123149500D01*
X99729844Y-123164323D01*
X99729831Y-123164325D01*
X99465453Y-123223217D01*
X99465446Y-123223220D01*
X99212439Y-123319987D01*
X98976226Y-123452557D01*
X98976224Y-123452558D01*
X98976223Y-123452559D01*
X98950694Y-123472272D01*
X98761822Y-123618112D01*
X98573822Y-123813109D01*
X98573816Y-123813116D01*
X98416202Y-124033419D01*
X98416199Y-124033424D01*
X98292350Y-124274309D01*
X98292343Y-124274327D01*
X98204884Y-124530685D01*
X98204881Y-124530699D01*
X98155681Y-124797068D01*
X98155680Y-124797075D01*
X98145787Y-125067763D01*
X95300500Y-125067763D01*
X95300500Y-122500000D01*
X167619474Y-122500000D01*
X167639547Y-122755064D01*
X167699279Y-123003864D01*
X167797188Y-123240239D01*
X167797190Y-123240242D01*
X167930875Y-123458396D01*
X167930878Y-123458401D01*
X167973847Y-123508711D01*
X168097044Y-123652956D01*
X168166381Y-123712175D01*
X168291598Y-123819121D01*
X168291600Y-123819122D01*
X168291601Y-123819123D01*
X168509757Y-123952809D01*
X168509760Y-123952811D01*
X168746135Y-124050720D01*
X168746140Y-124050722D01*
X168994930Y-124110452D01*
X169250000Y-124130526D01*
X169505070Y-124110452D01*
X169753860Y-124050722D01*
X169872051Y-124001765D01*
X169990239Y-123952811D01*
X169990240Y-123952810D01*
X169990243Y-123952809D01*
X170208399Y-123819123D01*
X170402956Y-123652956D01*
X170569123Y-123458399D01*
X170702809Y-123240243D01*
X170709862Y-123223217D01*
X170800720Y-123003864D01*
X170800722Y-123003860D01*
X170860452Y-122755070D01*
X170880526Y-122500000D01*
X170860452Y-122244930D01*
X170800722Y-121996140D01*
X170747718Y-121868176D01*
X170702811Y-121759760D01*
X170702809Y-121759757D01*
X170569124Y-121541603D01*
X170569121Y-121541598D01*
X170484522Y-121442546D01*
X170461463Y-121415547D01*
X176999500Y-121415547D01*
X176999501Y-121415553D01*
X177005908Y-121475160D01*
X177056202Y-121610005D01*
X177056206Y-121610012D01*
X177142452Y-121725221D01*
X177142455Y-121725224D01*
X177257664Y-121811470D01*
X177257671Y-121811474D01*
X177392517Y-121861768D01*
X177392516Y-121861768D01*
X177399444Y-121862512D01*
X177452127Y-121868177D01*
X179547872Y-121868176D01*
X179607483Y-121861768D01*
X179742331Y-121811473D01*
X179857546Y-121725223D01*
X179943796Y-121610008D01*
X179994091Y-121475160D01*
X179994091Y-121475158D01*
X179995874Y-121467615D01*
X179998146Y-121468151D01*
X180020429Y-121414365D01*
X180077823Y-121374520D01*
X180116976Y-121368177D01*
X199561894Y-121368177D01*
X199628933Y-121387862D01*
X199649575Y-121404496D01*
X204873181Y-126628101D01*
X204906666Y-126689424D01*
X204909500Y-126715782D01*
X204909500Y-128297870D01*
X204909501Y-128297876D01*
X204915908Y-128357483D01*
X204966202Y-128492328D01*
X204966206Y-128492335D01*
X205052452Y-128607544D01*
X205052455Y-128607547D01*
X205167664Y-128693793D01*
X205167671Y-128693797D01*
X205302517Y-128744091D01*
X205302516Y-128744091D01*
X205309444Y-128744835D01*
X205362127Y-128750500D01*
X207957872Y-128750499D01*
X208017483Y-128744091D01*
X208152331Y-128693796D01*
X208267546Y-128607546D01*
X208353796Y-128492331D01*
X208404091Y-128357483D01*
X208410500Y-128297873D01*
X208410500Y-127000004D01*
X209904592Y-127000004D01*
X209924196Y-127261620D01*
X209924197Y-127261625D01*
X209982576Y-127517402D01*
X209982578Y-127517411D01*
X209982580Y-127517416D01*
X210078432Y-127761643D01*
X210209614Y-127988857D01*
X210341736Y-128154533D01*
X210373198Y-128193985D01*
X210485163Y-128297872D01*
X210565521Y-128372433D01*
X210782296Y-128520228D01*
X210782301Y-128520230D01*
X210782302Y-128520231D01*
X210782303Y-128520232D01*
X210907843Y-128580688D01*
X211018673Y-128634061D01*
X211018674Y-128634061D01*
X211018677Y-128634063D01*
X211269385Y-128711396D01*
X211528818Y-128750500D01*
X211791182Y-128750500D01*
X212050615Y-128711396D01*
X212301323Y-128634063D01*
X212537704Y-128520228D01*
X212754479Y-128372433D01*
X212946805Y-128193981D01*
X213110386Y-127988857D01*
X213241568Y-127761643D01*
X213337420Y-127517416D01*
X213395802Y-127261630D01*
X213395808Y-127261550D01*
X213415408Y-127000004D01*
X214904592Y-127000004D01*
X214924196Y-127261620D01*
X214924197Y-127261625D01*
X214982576Y-127517402D01*
X214982578Y-127517411D01*
X214982580Y-127517416D01*
X215078432Y-127761643D01*
X215209614Y-127988857D01*
X215341736Y-128154533D01*
X215373198Y-128193985D01*
X215485163Y-128297872D01*
X215565521Y-128372433D01*
X215782296Y-128520228D01*
X215782301Y-128520230D01*
X215782302Y-128520231D01*
X215782303Y-128520232D01*
X215907843Y-128580688D01*
X216018673Y-128634061D01*
X216018674Y-128634061D01*
X216018677Y-128634063D01*
X216269385Y-128711396D01*
X216528818Y-128750500D01*
X216791182Y-128750500D01*
X217050615Y-128711396D01*
X217301323Y-128634063D01*
X217537704Y-128520228D01*
X217754479Y-128372433D01*
X217946805Y-128193981D01*
X218110386Y-127988857D01*
X218241568Y-127761643D01*
X218337420Y-127517416D01*
X218395802Y-127261630D01*
X218395808Y-127261550D01*
X218415408Y-127000004D01*
X219905093Y-127000004D01*
X219924692Y-127261545D01*
X219924693Y-127261550D01*
X219983058Y-127517270D01*
X220078883Y-127761426D01*
X220078882Y-127761426D01*
X220210030Y-127988577D01*
X220257873Y-128048571D01*
X220257874Y-128048571D01*
X221057452Y-127248993D01*
X221067188Y-127278956D01*
X221155186Y-127417619D01*
X221274903Y-127530040D01*
X221409510Y-127604041D01*
X220610831Y-128402720D01*
X220782546Y-128519793D01*
X220782550Y-128519795D01*
X221018854Y-128633594D01*
X221018858Y-128633595D01*
X221269494Y-128710907D01*
X221269500Y-128710909D01*
X221528848Y-128749999D01*
X221528857Y-128750000D01*
X221791143Y-128750000D01*
X221791151Y-128749999D01*
X222050499Y-128710909D01*
X222050505Y-128710907D01*
X222301143Y-128633595D01*
X222537445Y-128519798D01*
X222537456Y-128519791D01*
X222709167Y-128402720D01*
X221907534Y-127601086D01*
X221975629Y-127574126D01*
X222108492Y-127477595D01*
X222213175Y-127351055D01*
X222261631Y-127248079D01*
X223062124Y-128048571D01*
X223109974Y-127988570D01*
X223241116Y-127761426D01*
X223336941Y-127517270D01*
X223395306Y-127261550D01*
X223395307Y-127261545D01*
X223414907Y-127000004D01*
X223414907Y-126999995D01*
X223395307Y-126738454D01*
X223395306Y-126738449D01*
X223336941Y-126482729D01*
X223241116Y-126238573D01*
X223241117Y-126238573D01*
X223109971Y-126011426D01*
X223062125Y-125951427D01*
X222262546Y-126751005D01*
X222252812Y-126721044D01*
X222164814Y-126582381D01*
X222045097Y-126469960D01*
X221910488Y-126395957D01*
X222709167Y-125597278D01*
X222537447Y-125480202D01*
X222537445Y-125480201D01*
X222301142Y-125366404D01*
X222301144Y-125366404D01*
X222050505Y-125289092D01*
X222050499Y-125289090D01*
X221791151Y-125250000D01*
X221528848Y-125250000D01*
X221269500Y-125289090D01*
X221269494Y-125289092D01*
X221018858Y-125366404D01*
X221018854Y-125366405D01*
X220782550Y-125480204D01*
X220782546Y-125480206D01*
X220610832Y-125597278D01*
X221412466Y-126398912D01*
X221344371Y-126425874D01*
X221211508Y-126522405D01*
X221106825Y-126648945D01*
X221058367Y-126751921D01*
X220257873Y-125951427D01*
X220210029Y-126011423D01*
X220078883Y-126238573D01*
X219983058Y-126482729D01*
X219924693Y-126738449D01*
X219924692Y-126738454D01*
X219905093Y-126999995D01*
X219905093Y-127000004D01*
X218415408Y-127000004D01*
X218415408Y-126999995D01*
X218395803Y-126738379D01*
X218395802Y-126738374D01*
X218395802Y-126738370D01*
X218337420Y-126482584D01*
X218241568Y-126238357D01*
X218110386Y-126011143D01*
X217946805Y-125806019D01*
X217946804Y-125806018D01*
X217946801Y-125806014D01*
X217754479Y-125627567D01*
X217710053Y-125597278D01*
X217537704Y-125479772D01*
X217537700Y-125479770D01*
X217537697Y-125479768D01*
X217537696Y-125479767D01*
X217301325Y-125365938D01*
X217301327Y-125365938D01*
X217050623Y-125288606D01*
X217050619Y-125288605D01*
X217050615Y-125288604D01*
X216925823Y-125269794D01*
X216791187Y-125249500D01*
X216791182Y-125249500D01*
X216528818Y-125249500D01*
X216528812Y-125249500D01*
X216367247Y-125273853D01*
X216269385Y-125288604D01*
X216269382Y-125288605D01*
X216269376Y-125288606D01*
X216018673Y-125365938D01*
X215782303Y-125479767D01*
X215782302Y-125479768D01*
X215782296Y-125479771D01*
X215782296Y-125479772D01*
X215756839Y-125497128D01*
X215565520Y-125627567D01*
X215373198Y-125806014D01*
X215209614Y-126011143D01*
X215078432Y-126238356D01*
X214982582Y-126482578D01*
X214982576Y-126482597D01*
X214924197Y-126738374D01*
X214924196Y-126738379D01*
X214904592Y-126999995D01*
X214904592Y-127000004D01*
X213415408Y-127000004D01*
X213415408Y-126999995D01*
X213395803Y-126738379D01*
X213395802Y-126738374D01*
X213395802Y-126738370D01*
X213337420Y-126482584D01*
X213241568Y-126238357D01*
X213110386Y-126011143D01*
X212946805Y-125806019D01*
X212946804Y-125806018D01*
X212946801Y-125806014D01*
X212754479Y-125627567D01*
X212710053Y-125597278D01*
X212537704Y-125479772D01*
X212537700Y-125479770D01*
X212537697Y-125479768D01*
X212537696Y-125479767D01*
X212301325Y-125365938D01*
X212301327Y-125365938D01*
X212050623Y-125288606D01*
X212050619Y-125288605D01*
X212050615Y-125288604D01*
X211925823Y-125269794D01*
X211791187Y-125249500D01*
X211791182Y-125249500D01*
X211528818Y-125249500D01*
X211528812Y-125249500D01*
X211367247Y-125273853D01*
X211269385Y-125288604D01*
X211269382Y-125288605D01*
X211269376Y-125288606D01*
X211018673Y-125365938D01*
X210782303Y-125479767D01*
X210782302Y-125479768D01*
X210782296Y-125479771D01*
X210782296Y-125479772D01*
X210756839Y-125497128D01*
X210565520Y-125627567D01*
X210373198Y-125806014D01*
X210209614Y-126011143D01*
X210078432Y-126238356D01*
X209982582Y-126482578D01*
X209982576Y-126482597D01*
X209924197Y-126738374D01*
X209924196Y-126738379D01*
X209904592Y-126999995D01*
X209904592Y-127000004D01*
X208410500Y-127000004D01*
X208410499Y-125702128D01*
X208404091Y-125642517D01*
X208353796Y-125507669D01*
X208353795Y-125507668D01*
X208353793Y-125507664D01*
X208267547Y-125392455D01*
X208267544Y-125392452D01*
X208152335Y-125306206D01*
X208152328Y-125306202D01*
X208017482Y-125255908D01*
X208017483Y-125255908D01*
X207957883Y-125249501D01*
X207957881Y-125249500D01*
X207957873Y-125249500D01*
X207957865Y-125249500D01*
X206375783Y-125249500D01*
X206308744Y-125229815D01*
X206288102Y-125213181D01*
X206142684Y-125067763D01*
X228145787Y-125067763D01*
X228175413Y-125337013D01*
X228175415Y-125337024D01*
X228243926Y-125599082D01*
X228243928Y-125599088D01*
X228349870Y-125848390D01*
X228490979Y-126079605D01*
X228490986Y-126079615D01*
X228664253Y-126287819D01*
X228664259Y-126287824D01*
X228769240Y-126381887D01*
X228865998Y-126468582D01*
X229091910Y-126618044D01*
X229337176Y-126733020D01*
X229337183Y-126733022D01*
X229337185Y-126733023D01*
X229596557Y-126811057D01*
X229596564Y-126811058D01*
X229596569Y-126811060D01*
X229864561Y-126850500D01*
X229864566Y-126850500D01*
X230067636Y-126850500D01*
X230119133Y-126846730D01*
X230270156Y-126835677D01*
X230407277Y-126805132D01*
X230534546Y-126776782D01*
X230534548Y-126776781D01*
X230534553Y-126776780D01*
X230787558Y-126680014D01*
X231023777Y-126547441D01*
X231238177Y-126381888D01*
X231426186Y-126186881D01*
X231583799Y-125966579D01*
X231657787Y-125822669D01*
X231707649Y-125725690D01*
X231707651Y-125725684D01*
X231707656Y-125725675D01*
X231791547Y-125479772D01*
X231795115Y-125469314D01*
X231795115Y-125469313D01*
X231795118Y-125469305D01*
X231844319Y-125202933D01*
X231854212Y-124932235D01*
X231824586Y-124662982D01*
X231756072Y-124400912D01*
X231650130Y-124151610D01*
X231509018Y-123920390D01*
X231460791Y-123862439D01*
X231335746Y-123712180D01*
X231335740Y-123712175D01*
X231134002Y-123531418D01*
X230908092Y-123381957D01*
X230908090Y-123381956D01*
X230662824Y-123266980D01*
X230662819Y-123266978D01*
X230662814Y-123266976D01*
X230403442Y-123188942D01*
X230403428Y-123188939D01*
X230287791Y-123171921D01*
X230135439Y-123149500D01*
X229932369Y-123149500D01*
X229932364Y-123149500D01*
X229729844Y-123164323D01*
X229729831Y-123164325D01*
X229465453Y-123223217D01*
X229465446Y-123223220D01*
X229212439Y-123319987D01*
X228976226Y-123452557D01*
X228976224Y-123452558D01*
X228976223Y-123452559D01*
X228950694Y-123472272D01*
X228761822Y-123618112D01*
X228573822Y-123813109D01*
X228573816Y-123813116D01*
X228416202Y-124033419D01*
X228416199Y-124033424D01*
X228292350Y-124274309D01*
X228292343Y-124274327D01*
X228204884Y-124530685D01*
X228204881Y-124530699D01*
X228155681Y-124797068D01*
X228155680Y-124797075D01*
X228145787Y-125067763D01*
X206142684Y-125067763D01*
X200744129Y-119669209D01*
X200682738Y-119604626D01*
X200682737Y-119604625D01*
X200682736Y-119604624D01*
X200654881Y-119585236D01*
X200632386Y-119569579D01*
X200628623Y-119566741D01*
X200581090Y-119527982D01*
X200581083Y-119527977D01*
X200550636Y-119512074D01*
X200543928Y-119508011D01*
X200515726Y-119488382D01*
X200515723Y-119488380D01*
X200515722Y-119488380D01*
X200515718Y-119488378D01*
X200459357Y-119464191D01*
X200455101Y-119462170D01*
X200400734Y-119433771D01*
X200400727Y-119433768D01*
X200400726Y-119433768D01*
X200394685Y-119432039D01*
X200367707Y-119424319D01*
X200360307Y-119421685D01*
X200328734Y-119408136D01*
X200328735Y-119408136D01*
X200268643Y-119395786D01*
X200264068Y-119394663D01*
X200205097Y-119377790D01*
X200205102Y-119377790D01*
X200170835Y-119375180D01*
X200163057Y-119374089D01*
X200129419Y-119367177D01*
X200129418Y-119367177D01*
X200068079Y-119367177D01*
X200063372Y-119366998D01*
X200057798Y-119366573D01*
X200002201Y-119362339D01*
X199982266Y-119364878D01*
X199968117Y-119366680D01*
X199960288Y-119367177D01*
X180116977Y-119367177D01*
X180049938Y-119347492D01*
X180004183Y-119294688D01*
X179996733Y-119267542D01*
X179995876Y-119267745D01*
X179994092Y-119260197D01*
X179943797Y-119125348D01*
X179943793Y-119125341D01*
X179857547Y-119010132D01*
X179857544Y-119010129D01*
X179742335Y-118923883D01*
X179742328Y-118923879D01*
X179607482Y-118873585D01*
X179607483Y-118873585D01*
X179547883Y-118867178D01*
X179547881Y-118867177D01*
X179547873Y-118867177D01*
X179547864Y-118867177D01*
X177452129Y-118867177D01*
X177452123Y-118867178D01*
X177392516Y-118873585D01*
X177257671Y-118923879D01*
X177257664Y-118923883D01*
X177142455Y-119010129D01*
X177142452Y-119010132D01*
X177056206Y-119125341D01*
X177056202Y-119125348D01*
X177005908Y-119260194D01*
X176999501Y-119319793D01*
X176999500Y-119319812D01*
X176999500Y-121415547D01*
X170461463Y-121415547D01*
X170402956Y-121347044D01*
X170261716Y-121226414D01*
X170208401Y-121180878D01*
X170208396Y-121180875D01*
X169990242Y-121047190D01*
X169990239Y-121047188D01*
X169753864Y-120949279D01*
X169753860Y-120949278D01*
X169505070Y-120889548D01*
X169505067Y-120889547D01*
X169505064Y-120889547D01*
X169250000Y-120869474D01*
X168994935Y-120889547D01*
X168994931Y-120889547D01*
X168994930Y-120889548D01*
X168870535Y-120919413D01*
X168746135Y-120949279D01*
X168509760Y-121047188D01*
X168509757Y-121047190D01*
X168291603Y-121180875D01*
X168291598Y-121180878D01*
X168097044Y-121347044D01*
X167930878Y-121541598D01*
X167930875Y-121541603D01*
X167797190Y-121759757D01*
X167797188Y-121759760D01*
X167699279Y-121996135D01*
X167639547Y-122244935D01*
X167619474Y-122500000D01*
X95300500Y-122500000D01*
X95300500Y-120780193D01*
X111599500Y-120780193D01*
X111599501Y-120780199D01*
X111605908Y-120839806D01*
X111656202Y-120974651D01*
X111656206Y-120974658D01*
X111742452Y-121089867D01*
X111742455Y-121089870D01*
X111857664Y-121176116D01*
X111857671Y-121176120D01*
X111992517Y-121226414D01*
X111992516Y-121226414D01*
X111999444Y-121227158D01*
X112052127Y-121232823D01*
X114147872Y-121232822D01*
X114207483Y-121226414D01*
X114342331Y-121176119D01*
X114400104Y-121132870D01*
X121904500Y-121132870D01*
X121904501Y-121132876D01*
X121910908Y-121192483D01*
X121961202Y-121327328D01*
X121961206Y-121327335D01*
X122047452Y-121442544D01*
X122047455Y-121442547D01*
X122162664Y-121528793D01*
X122162671Y-121528797D01*
X122297517Y-121579091D01*
X122297516Y-121579091D01*
X122304444Y-121579835D01*
X122357127Y-121585500D01*
X124702872Y-121585499D01*
X124762483Y-121579091D01*
X124897331Y-121528796D01*
X125012546Y-121442546D01*
X125098796Y-121327331D01*
X125149091Y-121192483D01*
X125155500Y-121132873D01*
X125155499Y-118787128D01*
X125149091Y-118727517D01*
X125133028Y-118684451D01*
X125098797Y-118592671D01*
X125098793Y-118592664D01*
X125012547Y-118477455D01*
X125012544Y-118477452D01*
X124897335Y-118391206D01*
X124897328Y-118391202D01*
X124762482Y-118340908D01*
X124762483Y-118340908D01*
X124702883Y-118334501D01*
X124702881Y-118334500D01*
X124702873Y-118334500D01*
X124702864Y-118334500D01*
X122357129Y-118334500D01*
X122357123Y-118334501D01*
X122297516Y-118340908D01*
X122162671Y-118391202D01*
X122162664Y-118391206D01*
X122047455Y-118477452D01*
X122047452Y-118477455D01*
X121961206Y-118592664D01*
X121961202Y-118592671D01*
X121910908Y-118727517D01*
X121904501Y-118787116D01*
X121904501Y-118787123D01*
X121904500Y-118787135D01*
X121904500Y-121132870D01*
X114400104Y-121132870D01*
X114457546Y-121089869D01*
X114543796Y-120974654D01*
X114594091Y-120839806D01*
X114600500Y-120780196D01*
X114600499Y-118684451D01*
X114594091Y-118624840D01*
X114543796Y-118489992D01*
X114543795Y-118489991D01*
X114543793Y-118489987D01*
X114457547Y-118374778D01*
X114457544Y-118374775D01*
X114342335Y-118288529D01*
X114342328Y-118288525D01*
X114207482Y-118238231D01*
X114207483Y-118238231D01*
X114147883Y-118231824D01*
X114147881Y-118231823D01*
X114147873Y-118231823D01*
X114147864Y-118231823D01*
X112052129Y-118231823D01*
X112052123Y-118231824D01*
X111992516Y-118238231D01*
X111857671Y-118288525D01*
X111857664Y-118288529D01*
X111742455Y-118374775D01*
X111742452Y-118374778D01*
X111656206Y-118489987D01*
X111656202Y-118489994D01*
X111605908Y-118624840D01*
X111599501Y-118684439D01*
X111599501Y-118684446D01*
X111599500Y-118684458D01*
X111599500Y-120780193D01*
X95300500Y-120780193D01*
X95300500Y-117947870D01*
X199346849Y-117947870D01*
X199346850Y-117947876D01*
X199353257Y-118007483D01*
X199403551Y-118142328D01*
X199403555Y-118142335D01*
X199489801Y-118257544D01*
X199489804Y-118257547D01*
X199605013Y-118343793D01*
X199605020Y-118343797D01*
X199739866Y-118394091D01*
X199739865Y-118394091D01*
X199746793Y-118394835D01*
X199799476Y-118400500D01*
X201495221Y-118400499D01*
X201554832Y-118394091D01*
X201689680Y-118343796D01*
X201804895Y-118257546D01*
X201891145Y-118142331D01*
X201941440Y-118007483D01*
X201947849Y-117947873D01*
X201947849Y-117100002D01*
X202842383Y-117100002D01*
X202862207Y-117326599D01*
X202862209Y-117326610D01*
X202921079Y-117546317D01*
X202921083Y-117546326D01*
X203017214Y-117752481D01*
X203017215Y-117752483D01*
X203068322Y-117825471D01*
X203068323Y-117825472D01*
X203749395Y-117144399D01*
X203762184Y-117225148D01*
X203819708Y-117338045D01*
X203909304Y-117427641D01*
X204022201Y-117485165D01*
X204102948Y-117497953D01*
X203421875Y-118179025D01*
X203421875Y-118179026D01*
X203494861Y-118230131D01*
X203494865Y-118230133D01*
X203701022Y-118326265D01*
X203701031Y-118326269D01*
X203920738Y-118385139D01*
X203920749Y-118385141D01*
X204147347Y-118404966D01*
X204147351Y-118404966D01*
X204373948Y-118385141D01*
X204373959Y-118385139D01*
X204593666Y-118326269D01*
X204593680Y-118326264D01*
X204799827Y-118230136D01*
X204872821Y-118179025D01*
X204541640Y-117847844D01*
X220250000Y-117847844D01*
X220256401Y-117907372D01*
X220256403Y-117907379D01*
X220306645Y-118042086D01*
X220306649Y-118042093D01*
X220392809Y-118157187D01*
X220392812Y-118157190D01*
X220507906Y-118243350D01*
X220507913Y-118243354D01*
X220642620Y-118293596D01*
X220642627Y-118293598D01*
X220702155Y-118299999D01*
X220702172Y-118300000D01*
X221400000Y-118300000D01*
X221400000Y-117215686D01*
X221411955Y-117227641D01*
X221524852Y-117285165D01*
X221650000Y-117304986D01*
X221775148Y-117285165D01*
X221888045Y-117227641D01*
X221900000Y-117215686D01*
X221900000Y-118300000D01*
X222597828Y-118300000D01*
X222597844Y-118299999D01*
X222657372Y-118293598D01*
X222657379Y-118293596D01*
X222792086Y-118243354D01*
X222792093Y-118243350D01*
X222907187Y-118157190D01*
X222907190Y-118157187D01*
X222993350Y-118042093D01*
X222993354Y-118042086D01*
X223043596Y-117907379D01*
X223043598Y-117907372D01*
X223049999Y-117847844D01*
X223050000Y-117847827D01*
X223050000Y-116759502D01*
X226049500Y-116759502D01*
X226064652Y-116937536D01*
X226124724Y-117168248D01*
X226222919Y-117385480D01*
X226222924Y-117385488D01*
X226356413Y-117582993D01*
X226356418Y-117582998D01*
X226356421Y-117583003D01*
X226521379Y-117755118D01*
X226713053Y-117896879D01*
X226925926Y-118004207D01*
X227153877Y-118074016D01*
X227390346Y-118104298D01*
X227628532Y-118094180D01*
X227861581Y-118043954D01*
X228082790Y-117955064D01*
X228285795Y-117830069D01*
X228464755Y-117672564D01*
X228614523Y-117487080D01*
X228730790Y-117278954D01*
X228810211Y-117054171D01*
X228849204Y-116826760D01*
X228850499Y-116819209D01*
X228850500Y-116819198D01*
X228850500Y-114440498D01*
X228835347Y-114262463D01*
X228775275Y-114031751D01*
X228677080Y-113814519D01*
X228677075Y-113814511D01*
X228543586Y-113617006D01*
X228543582Y-113617001D01*
X228543579Y-113616997D01*
X228378621Y-113444882D01*
X228186947Y-113303121D01*
X227974074Y-113195793D01*
X227873447Y-113164976D01*
X227746121Y-113125983D01*
X227509647Y-113095701D01*
X227271471Y-113105819D01*
X227271467Y-113105819D01*
X227038419Y-113156045D01*
X226817211Y-113244935D01*
X226614203Y-113369932D01*
X226435245Y-113527435D01*
X226362929Y-113616997D01*
X226285477Y-113712920D01*
X226285476Y-113712922D01*
X226169210Y-113921044D01*
X226089788Y-114145829D01*
X226049500Y-114380790D01*
X226049500Y-116759502D01*
X223050000Y-116759502D01*
X223050000Y-115850000D01*
X222050000Y-115850000D01*
X222050000Y-115350000D01*
X223050000Y-115350000D01*
X223050000Y-113352172D01*
X223049999Y-113352155D01*
X223043598Y-113292627D01*
X223043596Y-113292620D01*
X222993354Y-113157913D01*
X222993350Y-113157906D01*
X222907190Y-113042812D01*
X222907187Y-113042809D01*
X222792093Y-112956649D01*
X222792086Y-112956645D01*
X222657379Y-112906403D01*
X222657372Y-112906401D01*
X222597844Y-112900000D01*
X221900000Y-112900000D01*
X221900000Y-113984314D01*
X221888045Y-113972359D01*
X221775148Y-113914835D01*
X221650000Y-113895014D01*
X221524852Y-113914835D01*
X221411955Y-113972359D01*
X221400000Y-113984314D01*
X221400000Y-112900000D01*
X220702155Y-112900000D01*
X220642627Y-112906401D01*
X220642620Y-112906403D01*
X220507913Y-112956645D01*
X220507906Y-112956649D01*
X220392812Y-113042809D01*
X220392809Y-113042812D01*
X220306649Y-113157906D01*
X220306645Y-113157913D01*
X220256403Y-113292620D01*
X220256401Y-113292627D01*
X220250000Y-113352155D01*
X220250000Y-115350000D01*
X221250000Y-115350000D01*
X221250000Y-115850000D01*
X220250000Y-115850000D01*
X220250000Y-117847844D01*
X204541640Y-117847844D01*
X204191750Y-117497953D01*
X204272497Y-117485165D01*
X204385394Y-117427641D01*
X204474990Y-117338045D01*
X204532514Y-117225148D01*
X204545302Y-117144400D01*
X205226374Y-117825472D01*
X205277485Y-117752478D01*
X205373613Y-117546331D01*
X205373618Y-117546317D01*
X205432488Y-117326610D01*
X205432490Y-117326599D01*
X205452315Y-117100002D01*
X205452315Y-117099997D01*
X205432490Y-116873400D01*
X205432488Y-116873389D01*
X205373618Y-116653682D01*
X205373614Y-116653673D01*
X205277482Y-116447516D01*
X205277480Y-116447512D01*
X205226375Y-116374526D01*
X205226374Y-116374526D01*
X204545302Y-117055598D01*
X204532514Y-116974852D01*
X204474990Y-116861955D01*
X204385394Y-116772359D01*
X204272497Y-116714835D01*
X204191749Y-116702046D01*
X204872821Y-116020974D01*
X204872820Y-116020973D01*
X204799832Y-115969866D01*
X204799830Y-115969865D01*
X204593675Y-115873734D01*
X204593666Y-115873730D01*
X204373959Y-115814860D01*
X204373948Y-115814858D01*
X204147351Y-115795034D01*
X204147347Y-115795034D01*
X203920749Y-115814858D01*
X203920738Y-115814860D01*
X203701031Y-115873730D01*
X203701022Y-115873734D01*
X203494862Y-115969868D01*
X203421876Y-116020972D01*
X203421875Y-116020973D01*
X204102949Y-116702046D01*
X204022201Y-116714835D01*
X203909304Y-116772359D01*
X203819708Y-116861955D01*
X203762184Y-116974852D01*
X203749395Y-117055599D01*
X203068322Y-116374526D01*
X203068321Y-116374527D01*
X203017217Y-116447513D01*
X202921083Y-116653673D01*
X202921079Y-116653682D01*
X202862209Y-116873389D01*
X202862207Y-116873400D01*
X202842383Y-117099997D01*
X202842383Y-117100002D01*
X201947849Y-117100002D01*
X201947848Y-116252128D01*
X201941440Y-116192517D01*
X201891145Y-116057669D01*
X201891144Y-116057668D01*
X201891142Y-116057664D01*
X201804896Y-115942455D01*
X201804893Y-115942452D01*
X201689684Y-115856206D01*
X201689677Y-115856202D01*
X201554831Y-115805908D01*
X201554832Y-115805908D01*
X201495232Y-115799501D01*
X201495230Y-115799500D01*
X201495222Y-115799500D01*
X201495213Y-115799500D01*
X199799478Y-115799500D01*
X199799472Y-115799501D01*
X199739865Y-115805908D01*
X199605020Y-115856202D01*
X199605013Y-115856206D01*
X199489804Y-115942452D01*
X199489801Y-115942455D01*
X199403555Y-116057664D01*
X199403551Y-116057671D01*
X199353257Y-116192517D01*
X199348415Y-116237559D01*
X199346850Y-116252123D01*
X199346849Y-116252135D01*
X199346849Y-117947870D01*
X95300500Y-117947870D01*
X95300500Y-116000004D01*
X99745093Y-116000004D01*
X99764692Y-116261545D01*
X99764693Y-116261550D01*
X99823058Y-116517270D01*
X99918883Y-116761426D01*
X99918882Y-116761426D01*
X100050030Y-116988577D01*
X100097873Y-117048571D01*
X100097874Y-117048571D01*
X100897452Y-116248993D01*
X100907188Y-116278956D01*
X100995186Y-116417619D01*
X101114903Y-116530040D01*
X101249510Y-116604041D01*
X100450831Y-117402720D01*
X100622546Y-117519793D01*
X100622550Y-117519795D01*
X100858854Y-117633594D01*
X100858858Y-117633595D01*
X101109494Y-117710907D01*
X101109500Y-117710909D01*
X101368848Y-117749999D01*
X101368857Y-117750000D01*
X101631143Y-117750000D01*
X101631151Y-117749999D01*
X101890499Y-117710909D01*
X101890505Y-117710907D01*
X102141143Y-117633595D01*
X102377445Y-117519798D01*
X102377456Y-117519791D01*
X102549167Y-117402720D01*
X101747534Y-116601086D01*
X101815629Y-116574126D01*
X101948492Y-116477595D01*
X102053175Y-116351055D01*
X102101631Y-116248078D01*
X102902124Y-117048571D01*
X102949974Y-116988570D01*
X103081116Y-116761426D01*
X103176941Y-116517270D01*
X103235306Y-116261550D01*
X103235307Y-116261545D01*
X103254907Y-116000004D01*
X103254907Y-115999995D01*
X103235307Y-115738454D01*
X103235306Y-115738449D01*
X103176941Y-115482729D01*
X103081116Y-115238573D01*
X103081117Y-115238573D01*
X102949971Y-115011426D01*
X102902125Y-114951427D01*
X102102547Y-115751005D01*
X102092812Y-115721044D01*
X102004814Y-115582381D01*
X101885097Y-115469960D01*
X101750488Y-115395957D01*
X102266445Y-114880000D01*
X121899975Y-114880000D01*
X121920042Y-115134989D01*
X121979752Y-115383702D01*
X122077634Y-115620012D01*
X122077636Y-115620015D01*
X122211275Y-115838095D01*
X122211286Y-115838110D01*
X122214533Y-115841911D01*
X122214535Y-115841911D01*
X122852804Y-115203642D01*
X122876059Y-115257553D01*
X122980756Y-115398185D01*
X123115062Y-115510882D01*
X123206665Y-115556886D01*
X122568087Y-116195464D01*
X122568087Y-116195465D01*
X122571888Y-116198712D01*
X122571898Y-116198719D01*
X122789984Y-116332363D01*
X122789987Y-116332365D01*
X123026297Y-116430247D01*
X123275011Y-116489957D01*
X123275010Y-116489957D01*
X123530000Y-116510024D01*
X123784989Y-116489957D01*
X124033702Y-116430247D01*
X124270012Y-116332365D01*
X124270015Y-116332363D01*
X124488103Y-116198719D01*
X124491912Y-116195464D01*
X123855945Y-115559498D01*
X123868891Y-115554787D01*
X124015373Y-115458445D01*
X124135688Y-115330918D01*
X124208446Y-115204894D01*
X124845464Y-115841912D01*
X124848719Y-115838103D01*
X124982363Y-115620015D01*
X124982365Y-115620012D01*
X125080247Y-115383702D01*
X125084093Y-115367682D01*
X176994859Y-115367682D01*
X177015385Y-115615406D01*
X177015387Y-115615415D01*
X177076412Y-115856394D01*
X177176266Y-116084041D01*
X177276564Y-116237559D01*
X178016923Y-115497200D01*
X178040507Y-115577521D01*
X178118239Y-115698475D01*
X178226900Y-115792629D01*
X178357685Y-115852357D01*
X178367466Y-115853763D01*
X177629942Y-116591286D01*
X177676768Y-116627732D01*
X177676770Y-116627733D01*
X177895385Y-116746041D01*
X177895396Y-116746046D01*
X178130506Y-116826760D01*
X178375707Y-116867677D01*
X178624293Y-116867677D01*
X178869493Y-116826760D01*
X179104603Y-116746046D01*
X179104614Y-116746041D01*
X179323228Y-116627734D01*
X179323231Y-116627732D01*
X179370056Y-116591286D01*
X178632533Y-115853763D01*
X178642315Y-115852357D01*
X178773100Y-115792629D01*
X178881761Y-115698475D01*
X178959493Y-115577521D01*
X178983076Y-115497201D01*
X179723434Y-116237559D01*
X179823731Y-116084046D01*
X179923587Y-115856394D01*
X179984612Y-115615415D01*
X179984614Y-115615406D01*
X180005141Y-115367682D01*
X180005141Y-115367671D01*
X179984614Y-115119947D01*
X179984612Y-115119938D01*
X179923587Y-114878959D01*
X179823731Y-114651307D01*
X179723434Y-114497793D01*
X178983076Y-115238152D01*
X178959493Y-115157833D01*
X178881761Y-115036879D01*
X178773100Y-114942725D01*
X178642315Y-114882997D01*
X178632534Y-114881590D01*
X179370057Y-114144067D01*
X179370056Y-114144066D01*
X179323229Y-114107620D01*
X179104614Y-113989312D01*
X179104603Y-113989307D01*
X178869493Y-113908593D01*
X178624293Y-113867677D01*
X178375707Y-113867677D01*
X178130506Y-113908593D01*
X177895396Y-113989307D01*
X177895390Y-113989309D01*
X177676761Y-114107626D01*
X177629942Y-114144065D01*
X177629942Y-114144067D01*
X178367466Y-114881590D01*
X178357685Y-114882997D01*
X178226900Y-114942725D01*
X178118239Y-115036879D01*
X178040507Y-115157833D01*
X178016923Y-115238152D01*
X177276564Y-114497793D01*
X177176267Y-114651309D01*
X177076412Y-114878959D01*
X177015387Y-115119938D01*
X177015385Y-115119947D01*
X176994859Y-115367671D01*
X176994859Y-115367682D01*
X125084093Y-115367682D01*
X125139957Y-115134989D01*
X125160024Y-114880000D01*
X125139957Y-114625010D01*
X125080247Y-114376297D01*
X124982365Y-114139987D01*
X124982363Y-114139984D01*
X124848719Y-113921898D01*
X124848712Y-113921888D01*
X124845465Y-113918087D01*
X124845464Y-113918087D01*
X124207195Y-114556356D01*
X124183941Y-114502447D01*
X124079244Y-114361815D01*
X123944938Y-114249118D01*
X123853334Y-114203112D01*
X124491911Y-113564535D01*
X124491911Y-113564533D01*
X124488110Y-113561286D01*
X124488095Y-113561275D01*
X124270015Y-113427636D01*
X124270012Y-113427634D01*
X124033702Y-113329752D01*
X123784988Y-113270042D01*
X123784989Y-113270042D01*
X123530000Y-113249975D01*
X123275010Y-113270042D01*
X123026297Y-113329752D01*
X122789987Y-113427634D01*
X122789984Y-113427636D01*
X122571897Y-113561280D01*
X122568087Y-113564534D01*
X123204054Y-114200501D01*
X123191109Y-114205213D01*
X123044627Y-114301555D01*
X122924312Y-114429082D01*
X122851552Y-114555105D01*
X122214534Y-113918087D01*
X122211280Y-113921897D01*
X122077636Y-114139984D01*
X122077634Y-114139987D01*
X121979752Y-114376297D01*
X121920042Y-114625010D01*
X121899975Y-114880000D01*
X102266445Y-114880000D01*
X102549167Y-114597278D01*
X102377447Y-114480202D01*
X102377445Y-114480201D01*
X102141142Y-114366404D01*
X102141144Y-114366404D01*
X101890505Y-114289092D01*
X101890499Y-114289090D01*
X101631151Y-114250000D01*
X101368848Y-114250000D01*
X101109500Y-114289090D01*
X101109494Y-114289092D01*
X100858858Y-114366404D01*
X100858854Y-114366405D01*
X100622550Y-114480204D01*
X100622546Y-114480206D01*
X100450832Y-114597278D01*
X101252466Y-115398912D01*
X101184371Y-115425874D01*
X101051508Y-115522405D01*
X100946825Y-115648945D01*
X100898367Y-115751921D01*
X100097873Y-114951427D01*
X100050029Y-115011423D01*
X99918883Y-115238573D01*
X99823058Y-115482729D01*
X99764693Y-115738449D01*
X99764692Y-115738454D01*
X99745093Y-115999995D01*
X99745093Y-116000004D01*
X95300500Y-116000004D01*
X95300500Y-112297870D01*
X99749500Y-112297870D01*
X99749501Y-112297876D01*
X99755908Y-112357483D01*
X99806202Y-112492328D01*
X99806206Y-112492335D01*
X99892452Y-112607544D01*
X99892455Y-112607547D01*
X100007664Y-112693793D01*
X100007671Y-112693797D01*
X100142517Y-112744091D01*
X100142516Y-112744091D01*
X100149444Y-112744835D01*
X100202127Y-112750500D01*
X102797872Y-112750499D01*
X102857483Y-112744091D01*
X102992331Y-112693796D01*
X103107546Y-112607546D01*
X103193796Y-112492331D01*
X103244091Y-112357483D01*
X103245971Y-112340000D01*
X167619975Y-112340000D01*
X167640042Y-112594989D01*
X167699752Y-112843702D01*
X167797634Y-113080012D01*
X167797636Y-113080015D01*
X167931275Y-113298095D01*
X167931286Y-113298110D01*
X167934533Y-113301911D01*
X167934535Y-113301911D01*
X168572804Y-112663642D01*
X168596059Y-112717553D01*
X168700756Y-112858185D01*
X168835062Y-112970882D01*
X168926665Y-113016886D01*
X168288087Y-113655464D01*
X168288087Y-113655465D01*
X168291888Y-113658712D01*
X168291898Y-113658719D01*
X168509984Y-113792363D01*
X168509987Y-113792365D01*
X168746297Y-113890247D01*
X168995011Y-113949957D01*
X168995010Y-113949957D01*
X169250000Y-113970024D01*
X169504989Y-113949957D01*
X169753702Y-113890247D01*
X169990012Y-113792365D01*
X169990015Y-113792363D01*
X170208103Y-113658719D01*
X170211912Y-113655464D01*
X169575945Y-113019498D01*
X169588891Y-113014787D01*
X169735373Y-112918445D01*
X169855688Y-112790918D01*
X169928447Y-112664894D01*
X170565464Y-113301912D01*
X170568719Y-113298103D01*
X170702363Y-113080015D01*
X170702365Y-113080012D01*
X170800247Y-112843702D01*
X170859957Y-112594989D01*
X170880024Y-112340000D01*
X170859957Y-112085010D01*
X170800247Y-111836297D01*
X170702365Y-111599987D01*
X170702363Y-111599984D01*
X170568719Y-111381898D01*
X170568712Y-111381888D01*
X170565465Y-111378087D01*
X170565464Y-111378087D01*
X169927195Y-112016356D01*
X169903941Y-111962447D01*
X169799244Y-111821815D01*
X169664938Y-111709118D01*
X169573334Y-111663112D01*
X170211911Y-111024535D01*
X170211911Y-111024533D01*
X170208110Y-111021286D01*
X170208095Y-111021275D01*
X169990015Y-110887636D01*
X169990012Y-110887634D01*
X169753702Y-110789752D01*
X169504988Y-110730042D01*
X169504989Y-110730042D01*
X169250000Y-110709975D01*
X168995010Y-110730042D01*
X168746297Y-110789752D01*
X168509987Y-110887634D01*
X168509984Y-110887636D01*
X168291897Y-111021280D01*
X168288087Y-111024534D01*
X168924054Y-111660501D01*
X168911109Y-111665213D01*
X168764627Y-111761555D01*
X168644312Y-111889082D01*
X168571552Y-112015105D01*
X167934534Y-111378087D01*
X167931280Y-111381897D01*
X167797636Y-111599984D01*
X167797634Y-111599987D01*
X167699752Y-111836297D01*
X167640042Y-112085010D01*
X167619975Y-112340000D01*
X103245971Y-112340000D01*
X103250500Y-112297873D01*
X103250499Y-110400521D01*
X175499500Y-110400521D01*
X175499501Y-110400527D01*
X175505908Y-110460134D01*
X175556202Y-110594979D01*
X175556206Y-110594986D01*
X175642452Y-110710195D01*
X175642455Y-110710198D01*
X175757664Y-110796444D01*
X175757671Y-110796448D01*
X175892517Y-110846742D01*
X175892516Y-110846742D01*
X175899444Y-110847486D01*
X175952127Y-110853151D01*
X177647872Y-110853150D01*
X177707483Y-110846742D01*
X177842331Y-110796447D01*
X177917272Y-110740346D01*
X222145702Y-110740346D01*
X222155819Y-110978528D01*
X222155819Y-110978532D01*
X222206045Y-111211580D01*
X222294935Y-111432788D01*
X222294936Y-111432790D01*
X222419931Y-111635795D01*
X222577436Y-111814755D01*
X222762920Y-111964523D01*
X222971046Y-112080790D01*
X223096951Y-112125275D01*
X223195829Y-112160211D01*
X223430790Y-112200499D01*
X223430798Y-112200499D01*
X223430800Y-112200500D01*
X223430801Y-112200500D01*
X225809502Y-112200500D01*
X225987536Y-112185347D01*
X225987539Y-112185346D01*
X225987541Y-112185346D01*
X226218249Y-112125275D01*
X226350973Y-112065279D01*
X226435480Y-112027080D01*
X226435481Y-112027078D01*
X226435486Y-112027077D01*
X226633003Y-111893579D01*
X226805118Y-111728621D01*
X226946879Y-111536947D01*
X227054207Y-111324074D01*
X227124016Y-111096123D01*
X227154298Y-110859654D01*
X227144180Y-110621468D01*
X227093954Y-110388419D01*
X227005064Y-110167210D01*
X226880069Y-109964205D01*
X226722564Y-109785245D01*
X226537080Y-109635477D01*
X226423130Y-109571820D01*
X226328955Y-109519210D01*
X226104170Y-109439788D01*
X225869209Y-109399500D01*
X225869200Y-109399500D01*
X223490503Y-109399500D01*
X223490498Y-109399500D01*
X223312463Y-109414652D01*
X223081751Y-109474724D01*
X222864519Y-109572919D01*
X222864511Y-109572924D01*
X222667006Y-109706413D01*
X222666997Y-109706421D01*
X222494881Y-109871379D01*
X222353123Y-110063050D01*
X222353120Y-110063054D01*
X222245796Y-110275920D01*
X222245793Y-110275926D01*
X222175983Y-110503878D01*
X222145702Y-110740346D01*
X177917272Y-110740346D01*
X177957546Y-110710197D01*
X178043796Y-110594982D01*
X178094091Y-110460134D01*
X178100500Y-110400524D01*
X178100499Y-108947870D01*
X199346849Y-108947870D01*
X199346850Y-108947876D01*
X199353257Y-109007483D01*
X199403551Y-109142328D01*
X199403555Y-109142335D01*
X199489801Y-109257544D01*
X199489804Y-109257547D01*
X199605013Y-109343793D01*
X199605020Y-109343797D01*
X199739866Y-109394091D01*
X199739865Y-109394091D01*
X199746793Y-109394835D01*
X199799476Y-109400500D01*
X201495221Y-109400499D01*
X201554832Y-109394091D01*
X201689680Y-109343796D01*
X201804895Y-109257546D01*
X201891145Y-109142331D01*
X201941440Y-109007483D01*
X201947849Y-108947873D01*
X201947849Y-108100002D01*
X202842383Y-108100002D01*
X202862207Y-108326599D01*
X202862209Y-108326610D01*
X202921079Y-108546317D01*
X202921083Y-108546326D01*
X203017214Y-108752481D01*
X203017215Y-108752483D01*
X203068322Y-108825471D01*
X203068323Y-108825472D01*
X203749395Y-108144399D01*
X203762184Y-108225148D01*
X203819708Y-108338045D01*
X203909304Y-108427641D01*
X204022201Y-108485165D01*
X204102948Y-108497953D01*
X203421875Y-109179025D01*
X203421875Y-109179026D01*
X203494861Y-109230131D01*
X203494865Y-109230133D01*
X203701022Y-109326265D01*
X203701031Y-109326269D01*
X203920738Y-109385139D01*
X203920749Y-109385141D01*
X204147347Y-109404966D01*
X204147351Y-109404966D01*
X204373948Y-109385141D01*
X204373959Y-109385139D01*
X204593666Y-109326269D01*
X204593680Y-109326264D01*
X204799827Y-109230136D01*
X204872821Y-109179025D01*
X204191750Y-108497953D01*
X204272497Y-108485165D01*
X204385394Y-108427641D01*
X204474990Y-108338045D01*
X204532514Y-108225148D01*
X204545302Y-108144400D01*
X205226374Y-108825472D01*
X205277485Y-108752478D01*
X205373613Y-108546331D01*
X205373618Y-108546317D01*
X205432488Y-108326610D01*
X205432490Y-108326599D01*
X205452315Y-108100002D01*
X205452315Y-108099997D01*
X205432490Y-107873400D01*
X205432488Y-107873389D01*
X205373618Y-107653682D01*
X205373614Y-107653673D01*
X205277482Y-107447516D01*
X205277480Y-107447512D01*
X205226375Y-107374526D01*
X205226374Y-107374526D01*
X204545302Y-108055598D01*
X204532514Y-107974852D01*
X204474990Y-107861955D01*
X204385394Y-107772359D01*
X204272497Y-107714835D01*
X204191749Y-107702046D01*
X204872821Y-107020974D01*
X204872820Y-107020973D01*
X204799832Y-106969866D01*
X204799830Y-106969865D01*
X204593675Y-106873734D01*
X204593666Y-106873730D01*
X204373959Y-106814860D01*
X204373948Y-106814858D01*
X204147351Y-106795034D01*
X204147347Y-106795034D01*
X203920749Y-106814858D01*
X203920738Y-106814860D01*
X203701031Y-106873730D01*
X203701022Y-106873734D01*
X203494862Y-106969868D01*
X203421876Y-107020972D01*
X203421875Y-107020973D01*
X204102949Y-107702046D01*
X204022201Y-107714835D01*
X203909304Y-107772359D01*
X203819708Y-107861955D01*
X203762184Y-107974852D01*
X203749395Y-108055599D01*
X203068322Y-107374526D01*
X203068321Y-107374527D01*
X203017217Y-107447513D01*
X202921083Y-107653673D01*
X202921079Y-107653682D01*
X202862209Y-107873389D01*
X202862207Y-107873400D01*
X202842383Y-108099997D01*
X202842383Y-108100002D01*
X201947849Y-108100002D01*
X201947848Y-107252128D01*
X201941440Y-107192517D01*
X201891145Y-107057669D01*
X201891144Y-107057668D01*
X201891142Y-107057664D01*
X201804896Y-106942455D01*
X201804893Y-106942452D01*
X201689684Y-106856206D01*
X201689677Y-106856202D01*
X201554831Y-106805908D01*
X201554832Y-106805908D01*
X201495232Y-106799501D01*
X201495230Y-106799500D01*
X201495222Y-106799500D01*
X201495213Y-106799500D01*
X199799478Y-106799500D01*
X199799472Y-106799501D01*
X199739865Y-106805908D01*
X199605020Y-106856202D01*
X199605013Y-106856206D01*
X199489804Y-106942452D01*
X199489801Y-106942455D01*
X199403555Y-107057664D01*
X199403551Y-107057671D01*
X199353257Y-107192517D01*
X199346850Y-107252116D01*
X199346850Y-107252123D01*
X199346849Y-107252135D01*
X199346849Y-108947870D01*
X178100499Y-108947870D01*
X178100499Y-108704779D01*
X178094091Y-108645168D01*
X178057227Y-108546331D01*
X178043797Y-108510322D01*
X178043793Y-108510315D01*
X177957547Y-108395106D01*
X177957544Y-108395103D01*
X177842335Y-108308857D01*
X177842328Y-108308853D01*
X177707482Y-108258559D01*
X177707483Y-108258559D01*
X177647883Y-108252152D01*
X177647881Y-108252151D01*
X177647873Y-108252151D01*
X177647864Y-108252151D01*
X175952129Y-108252151D01*
X175952123Y-108252152D01*
X175892516Y-108258559D01*
X175757671Y-108308853D01*
X175757664Y-108308857D01*
X175642455Y-108395103D01*
X175642452Y-108395106D01*
X175556206Y-108510315D01*
X175556202Y-108510322D01*
X175505908Y-108645168D01*
X175499501Y-108704767D01*
X175499501Y-108704774D01*
X175499500Y-108704786D01*
X175499500Y-110400521D01*
X103250499Y-110400521D01*
X103250499Y-109702128D01*
X103244091Y-109642517D01*
X103241465Y-109635477D01*
X103193797Y-109507671D01*
X103193793Y-109507664D01*
X103107547Y-109392455D01*
X103107544Y-109392452D01*
X102992335Y-109306206D01*
X102992328Y-109306202D01*
X102857482Y-109255908D01*
X102857483Y-109255908D01*
X102797883Y-109249501D01*
X102797881Y-109249500D01*
X102797873Y-109249500D01*
X102797864Y-109249500D01*
X100202129Y-109249500D01*
X100202123Y-109249501D01*
X100142516Y-109255908D01*
X100007671Y-109306202D01*
X100007664Y-109306206D01*
X99892455Y-109392452D01*
X99892452Y-109392455D01*
X99806206Y-109507664D01*
X99806202Y-109507671D01*
X99755908Y-109642517D01*
X99749501Y-109702116D01*
X99749501Y-109702123D01*
X99749500Y-109702135D01*
X99749500Y-112297870D01*
X95300500Y-112297870D01*
X95300500Y-106297870D01*
X108899500Y-106297870D01*
X108899501Y-106297876D01*
X108905908Y-106357483D01*
X108956202Y-106492328D01*
X108956206Y-106492335D01*
X109042452Y-106607544D01*
X109042455Y-106607547D01*
X109157664Y-106693793D01*
X109157671Y-106693797D01*
X109292517Y-106744091D01*
X109292516Y-106744091D01*
X109299444Y-106744835D01*
X109352127Y-106750500D01*
X113847872Y-106750499D01*
X113907483Y-106744091D01*
X114042331Y-106693796D01*
X114157546Y-106607546D01*
X114243796Y-106492331D01*
X114294091Y-106357483D01*
X114300500Y-106297873D01*
X114300499Y-104720000D01*
X121899474Y-104720000D01*
X121919547Y-104975064D01*
X121979279Y-105223864D01*
X122077188Y-105460239D01*
X122077190Y-105460242D01*
X122210875Y-105678396D01*
X122210878Y-105678401D01*
X122250686Y-105725010D01*
X122377044Y-105872956D01*
X122501579Y-105979319D01*
X122571598Y-106039121D01*
X122571603Y-106039124D01*
X122789757Y-106172809D01*
X122789760Y-106172811D01*
X123026135Y-106270720D01*
X123026140Y-106270722D01*
X123274930Y-106330452D01*
X123530000Y-106350526D01*
X123785070Y-106330452D01*
X124033860Y-106270722D01*
X124152051Y-106221765D01*
X124270239Y-106172811D01*
X124270240Y-106172810D01*
X124270243Y-106172809D01*
X124466320Y-106052653D01*
X175495034Y-106052653D01*
X175514858Y-106279250D01*
X175514860Y-106279261D01*
X175573730Y-106498968D01*
X175573734Y-106498977D01*
X175669865Y-106705132D01*
X175669866Y-106705134D01*
X175720973Y-106778122D01*
X175720974Y-106778123D01*
X176402046Y-106097050D01*
X176414835Y-106177799D01*
X176472359Y-106290696D01*
X176561955Y-106380292D01*
X176674852Y-106437816D01*
X176755599Y-106450604D01*
X176074526Y-107131676D01*
X176074526Y-107131677D01*
X176147512Y-107182782D01*
X176147516Y-107182784D01*
X176353673Y-107278916D01*
X176353682Y-107278920D01*
X176573389Y-107337790D01*
X176573400Y-107337792D01*
X176799998Y-107357617D01*
X176800002Y-107357617D01*
X177026599Y-107337792D01*
X177026610Y-107337790D01*
X177246317Y-107278920D01*
X177246331Y-107278915D01*
X177452478Y-107182787D01*
X177525472Y-107131676D01*
X176844401Y-106450604D01*
X176925148Y-106437816D01*
X177038045Y-106380292D01*
X177127641Y-106290696D01*
X177185165Y-106177799D01*
X177197953Y-106097051D01*
X177879025Y-106778123D01*
X177930136Y-106705129D01*
X178026264Y-106498982D01*
X178026269Y-106498968D01*
X178085139Y-106279261D01*
X178085141Y-106279250D01*
X178104966Y-106052653D01*
X178104966Y-106052648D01*
X178085141Y-105826051D01*
X178085139Y-105826040D01*
X178026269Y-105606333D01*
X178026265Y-105606324D01*
X177930133Y-105400167D01*
X177930131Y-105400163D01*
X177879026Y-105327177D01*
X177879025Y-105327177D01*
X177197953Y-106008249D01*
X177185165Y-105927503D01*
X177127641Y-105814606D01*
X177038045Y-105725010D01*
X176925148Y-105667486D01*
X176844400Y-105654697D01*
X177525472Y-104973625D01*
X177525471Y-104973624D01*
X177452483Y-104922517D01*
X177452481Y-104922516D01*
X177246326Y-104826385D01*
X177246317Y-104826381D01*
X177026610Y-104767511D01*
X177026599Y-104767509D01*
X176800002Y-104747685D01*
X176799998Y-104747685D01*
X176573400Y-104767509D01*
X176573389Y-104767511D01*
X176353682Y-104826381D01*
X176353673Y-104826385D01*
X176147513Y-104922519D01*
X176074527Y-104973623D01*
X176074526Y-104973624D01*
X176755600Y-105654697D01*
X176674852Y-105667486D01*
X176561955Y-105725010D01*
X176472359Y-105814606D01*
X176414835Y-105927503D01*
X176402046Y-106008250D01*
X175720973Y-105327177D01*
X175720972Y-105327178D01*
X175669868Y-105400164D01*
X175573734Y-105606324D01*
X175573730Y-105606333D01*
X175514860Y-105826040D01*
X175514858Y-105826051D01*
X175495034Y-106052648D01*
X175495034Y-106052653D01*
X124466320Y-106052653D01*
X124488399Y-106039123D01*
X124682956Y-105872956D01*
X124849123Y-105678399D01*
X124982809Y-105460243D01*
X125080722Y-105223860D01*
X125140452Y-104975070D01*
X125160526Y-104720000D01*
X125140452Y-104464930D01*
X125080722Y-104216140D01*
X125029489Y-104092452D01*
X124982811Y-103979760D01*
X124982809Y-103979757D01*
X124964268Y-103949501D01*
X124849123Y-103761601D01*
X124849122Y-103761600D01*
X124849121Y-103761598D01*
X124689877Y-103575148D01*
X124682956Y-103567044D01*
X124576591Y-103476200D01*
X124488401Y-103400878D01*
X124488396Y-103400875D01*
X124270242Y-103267190D01*
X124270239Y-103267188D01*
X124033864Y-103169279D01*
X124033860Y-103169278D01*
X123785070Y-103109548D01*
X123785067Y-103109547D01*
X123785064Y-103109547D01*
X123530000Y-103089474D01*
X123274935Y-103109547D01*
X123274931Y-103109547D01*
X123274930Y-103109548D01*
X123154771Y-103138396D01*
X123026135Y-103169279D01*
X122789760Y-103267188D01*
X122789757Y-103267190D01*
X122571603Y-103400875D01*
X122571598Y-103400878D01*
X122377044Y-103567044D01*
X122210878Y-103761598D01*
X122210875Y-103761603D01*
X122077190Y-103979757D01*
X122077188Y-103979760D01*
X121979279Y-104216135D01*
X121919547Y-104464935D01*
X121899474Y-104720000D01*
X114300499Y-104720000D01*
X114300499Y-104402128D01*
X114294091Y-104342517D01*
X114254659Y-104236795D01*
X114243797Y-104207671D01*
X114243793Y-104207664D01*
X114157547Y-104092455D01*
X114157544Y-104092452D01*
X114042335Y-104006206D01*
X114042328Y-104006202D01*
X113907482Y-103955908D01*
X113907483Y-103955908D01*
X113847883Y-103949501D01*
X113847881Y-103949500D01*
X113847873Y-103949500D01*
X113847864Y-103949500D01*
X109352129Y-103949500D01*
X109352123Y-103949501D01*
X109292516Y-103955908D01*
X109157671Y-104006202D01*
X109157664Y-104006206D01*
X109042455Y-104092452D01*
X109042452Y-104092455D01*
X108956206Y-104207664D01*
X108956202Y-104207671D01*
X108905908Y-104342517D01*
X108899501Y-104402116D01*
X108899501Y-104402123D01*
X108899500Y-104402135D01*
X108899500Y-106297870D01*
X95300500Y-106297870D01*
X95300500Y-103509478D01*
X105400000Y-103509478D01*
X105415147Y-103687450D01*
X105415148Y-103687453D01*
X105475197Y-103918078D01*
X105573360Y-104135241D01*
X105573362Y-104135244D01*
X105706812Y-104332688D01*
X105706814Y-104332690D01*
X105871706Y-104504736D01*
X106063316Y-104646450D01*
X106276115Y-104753741D01*
X106503987Y-104823526D01*
X106503985Y-104823526D01*
X106550000Y-104829418D01*
X106550000Y-103765686D01*
X106561955Y-103777641D01*
X106674852Y-103835165D01*
X106800000Y-103854986D01*
X106925148Y-103835165D01*
X107038045Y-103777641D01*
X107050000Y-103765686D01*
X107050000Y-104828264D01*
X107211434Y-104793473D01*
X107432562Y-104704616D01*
X107635494Y-104579666D01*
X107814389Y-104422219D01*
X107814396Y-104422213D01*
X107964102Y-104236805D01*
X107964109Y-104236795D01*
X108080331Y-104028751D01*
X108159722Y-103804052D01*
X108159726Y-103804038D01*
X108199999Y-103569167D01*
X108200000Y-103569156D01*
X108200000Y-102600000D01*
X107200000Y-102600000D01*
X107200000Y-102180000D01*
X167619474Y-102180000D01*
X167639547Y-102435064D01*
X167699279Y-102683864D01*
X167797188Y-102920239D01*
X167797190Y-102920242D01*
X167930875Y-103138396D01*
X167930878Y-103138401D01*
X168006200Y-103226591D01*
X168097044Y-103332956D01*
X168176571Y-103400878D01*
X168291598Y-103499121D01*
X168291603Y-103499124D01*
X168509757Y-103632809D01*
X168509760Y-103632811D01*
X168746135Y-103730720D01*
X168746140Y-103730722D01*
X168994930Y-103790452D01*
X169250000Y-103810526D01*
X169505070Y-103790452D01*
X169753860Y-103730722D01*
X169872051Y-103681765D01*
X169990239Y-103632811D01*
X169990240Y-103632810D01*
X169990243Y-103632809D01*
X170208399Y-103499123D01*
X170402956Y-103332956D01*
X170569123Y-103138399D01*
X170702809Y-102920243D01*
X170800722Y-102683860D01*
X170860452Y-102435070D01*
X170880526Y-102180000D01*
X170860452Y-101924930D01*
X170800722Y-101676140D01*
X170747414Y-101547442D01*
X170702811Y-101439760D01*
X170702809Y-101439757D01*
X170687957Y-101415521D01*
X177000000Y-101415521D01*
X177006401Y-101475049D01*
X177006403Y-101475056D01*
X177056645Y-101609763D01*
X177056649Y-101609770D01*
X177142809Y-101724864D01*
X177142812Y-101724867D01*
X177257906Y-101811027D01*
X177257913Y-101811031D01*
X177392620Y-101861273D01*
X177392627Y-101861275D01*
X177452155Y-101867676D01*
X177452172Y-101867677D01*
X178250000Y-101867677D01*
X178250000Y-100803178D01*
X178357685Y-100852357D01*
X178464237Y-100867677D01*
X178535763Y-100867677D01*
X178642315Y-100852357D01*
X178750000Y-100803178D01*
X178750000Y-101867677D01*
X179547828Y-101867677D01*
X179547844Y-101867676D01*
X179607372Y-101861275D01*
X179607379Y-101861273D01*
X179742086Y-101811031D01*
X179742093Y-101811027D01*
X179857187Y-101724867D01*
X179857190Y-101724864D01*
X179943350Y-101609770D01*
X179943354Y-101609763D01*
X179993596Y-101475056D01*
X179993598Y-101475049D01*
X179999999Y-101415521D01*
X180000000Y-101415504D01*
X180000000Y-100617677D01*
X178933686Y-100617677D01*
X178959493Y-100577521D01*
X179000000Y-100439566D01*
X179000000Y-100295788D01*
X178959493Y-100157833D01*
X178933686Y-100117677D01*
X180000000Y-100117677D01*
X180000000Y-100067763D01*
X228145787Y-100067763D01*
X228175413Y-100337013D01*
X228175415Y-100337024D01*
X228243926Y-100599082D01*
X228243928Y-100599088D01*
X228349870Y-100848390D01*
X228490979Y-101079605D01*
X228490986Y-101079615D01*
X228664253Y-101287819D01*
X228664259Y-101287824D01*
X228865998Y-101468582D01*
X229091910Y-101618044D01*
X229337176Y-101733020D01*
X229337183Y-101733022D01*
X229337185Y-101733023D01*
X229596557Y-101811057D01*
X229596564Y-101811058D01*
X229596569Y-101811060D01*
X229864561Y-101850500D01*
X229864566Y-101850500D01*
X230067636Y-101850500D01*
X230119133Y-101846730D01*
X230270156Y-101835677D01*
X230382758Y-101810593D01*
X230534546Y-101776782D01*
X230534548Y-101776781D01*
X230534553Y-101776780D01*
X230787558Y-101680014D01*
X231023777Y-101547441D01*
X231238177Y-101381888D01*
X231426186Y-101186881D01*
X231583799Y-100966579D01*
X231706877Y-100727191D01*
X231707649Y-100725690D01*
X231707651Y-100725684D01*
X231707656Y-100725675D01*
X231795118Y-100469305D01*
X231844319Y-100202933D01*
X231854212Y-99932235D01*
X231824586Y-99662982D01*
X231756072Y-99400912D01*
X231650130Y-99151610D01*
X231509018Y-98920390D01*
X231419747Y-98813119D01*
X231335746Y-98712180D01*
X231335740Y-98712175D01*
X231134002Y-98531418D01*
X230908092Y-98381957D01*
X230842172Y-98351055D01*
X230662824Y-98266980D01*
X230662819Y-98266978D01*
X230662814Y-98266976D01*
X230403442Y-98188942D01*
X230403428Y-98188939D01*
X230287791Y-98171921D01*
X230135439Y-98149500D01*
X229932369Y-98149500D01*
X229932364Y-98149500D01*
X229729844Y-98164323D01*
X229729831Y-98164325D01*
X229465453Y-98223217D01*
X229465446Y-98223220D01*
X229212439Y-98319987D01*
X228976226Y-98452557D01*
X228976224Y-98452558D01*
X228976223Y-98452559D01*
X228970713Y-98456814D01*
X228761822Y-98618112D01*
X228573822Y-98813109D01*
X228573816Y-98813116D01*
X228416202Y-99033419D01*
X228416199Y-99033424D01*
X228292350Y-99274309D01*
X228292343Y-99274327D01*
X228204884Y-99530685D01*
X228204882Y-99530695D01*
X228157348Y-99788045D01*
X228155681Y-99797068D01*
X228155680Y-99797075D01*
X228145787Y-100067763D01*
X180000000Y-100067763D01*
X180000000Y-99319849D01*
X179999999Y-99319832D01*
X179993598Y-99260304D01*
X179993596Y-99260297D01*
X179943354Y-99125590D01*
X179943350Y-99125583D01*
X179857190Y-99010489D01*
X179857187Y-99010486D01*
X179742093Y-98924326D01*
X179742086Y-98924322D01*
X179607379Y-98874080D01*
X179607372Y-98874078D01*
X179547844Y-98867677D01*
X178750000Y-98867677D01*
X178750000Y-99932175D01*
X178642315Y-99882997D01*
X178535763Y-99867677D01*
X178464237Y-99867677D01*
X178357685Y-99882997D01*
X178250000Y-99932175D01*
X178250000Y-98867677D01*
X177452155Y-98867677D01*
X177392627Y-98874078D01*
X177392620Y-98874080D01*
X177257913Y-98924322D01*
X177257906Y-98924326D01*
X177142812Y-99010486D01*
X177142809Y-99010489D01*
X177056649Y-99125583D01*
X177056645Y-99125590D01*
X177006403Y-99260297D01*
X177006401Y-99260304D01*
X177000000Y-99319832D01*
X177000000Y-100117677D01*
X178066314Y-100117677D01*
X178040507Y-100157833D01*
X178000000Y-100295788D01*
X178000000Y-100439566D01*
X178040507Y-100577521D01*
X178066314Y-100617677D01*
X177000000Y-100617677D01*
X177000000Y-101415521D01*
X170687957Y-101415521D01*
X170569124Y-101221603D01*
X170569121Y-101221598D01*
X170486492Y-101124852D01*
X170402956Y-101027044D01*
X170265594Y-100909726D01*
X170208401Y-100860878D01*
X170208396Y-100860875D01*
X169990242Y-100727190D01*
X169990239Y-100727188D01*
X169753864Y-100629279D01*
X169705539Y-100617677D01*
X169505070Y-100569548D01*
X169505067Y-100569547D01*
X169505064Y-100569547D01*
X169250000Y-100549474D01*
X168994935Y-100569547D01*
X168994931Y-100569547D01*
X168994930Y-100569548D01*
X168961721Y-100577521D01*
X168746135Y-100629279D01*
X168509760Y-100727188D01*
X168509757Y-100727190D01*
X168291603Y-100860875D01*
X168291598Y-100860878D01*
X168097044Y-101027044D01*
X167930878Y-101221598D01*
X167930875Y-101221603D01*
X167797190Y-101439757D01*
X167797188Y-101439760D01*
X167699279Y-101676135D01*
X167685622Y-101733020D01*
X167653294Y-101867677D01*
X167639547Y-101924935D01*
X167619474Y-102180000D01*
X107200000Y-102180000D01*
X107200000Y-102100000D01*
X108200000Y-102100000D01*
X108200000Y-101190522D01*
X108184852Y-101012549D01*
X108184851Y-101012546D01*
X108124802Y-100781921D01*
X108026639Y-100564758D01*
X108026637Y-100564755D01*
X107893187Y-100367311D01*
X107893185Y-100367309D01*
X107728293Y-100195263D01*
X107536683Y-100053549D01*
X107323884Y-99946257D01*
X107096020Y-99876475D01*
X107050000Y-99870581D01*
X107050000Y-100934314D01*
X107038045Y-100922359D01*
X106925148Y-100864835D01*
X106800000Y-100845014D01*
X106674852Y-100864835D01*
X106561955Y-100922359D01*
X106550000Y-100934314D01*
X106550000Y-99871734D01*
X106549999Y-99871734D01*
X106388566Y-99906525D01*
X106167437Y-99995383D01*
X105964505Y-100120333D01*
X105785610Y-100277780D01*
X105785603Y-100277786D01*
X105635897Y-100463194D01*
X105635890Y-100463204D01*
X105519668Y-100671248D01*
X105440277Y-100895947D01*
X105440273Y-100895961D01*
X105400000Y-101130832D01*
X105400000Y-102100000D01*
X106400000Y-102100000D01*
X106400000Y-102600000D01*
X105400000Y-102600000D01*
X105400000Y-103509478D01*
X95300500Y-103509478D01*
X95300500Y-100067763D01*
X98145787Y-100067763D01*
X98175413Y-100337013D01*
X98175415Y-100337024D01*
X98243926Y-100599082D01*
X98243928Y-100599088D01*
X98349870Y-100848390D01*
X98490979Y-101079605D01*
X98490986Y-101079615D01*
X98664253Y-101287819D01*
X98664259Y-101287824D01*
X98865998Y-101468582D01*
X99091910Y-101618044D01*
X99337176Y-101733020D01*
X99337183Y-101733022D01*
X99337185Y-101733023D01*
X99596557Y-101811057D01*
X99596564Y-101811058D01*
X99596569Y-101811060D01*
X99864561Y-101850500D01*
X99864566Y-101850500D01*
X100067636Y-101850500D01*
X100119133Y-101846730D01*
X100270156Y-101835677D01*
X100382758Y-101810593D01*
X100534546Y-101776782D01*
X100534548Y-101776781D01*
X100534553Y-101776780D01*
X100787558Y-101680014D01*
X101023777Y-101547441D01*
X101238177Y-101381888D01*
X101426186Y-101186881D01*
X101583799Y-100966579D01*
X101706877Y-100727191D01*
X101707649Y-100725690D01*
X101707651Y-100725684D01*
X101707656Y-100725675D01*
X101795118Y-100469305D01*
X101844319Y-100202933D01*
X101854212Y-99932235D01*
X101824586Y-99662982D01*
X101756072Y-99400912D01*
X101713189Y-99300000D01*
X109120582Y-99300000D01*
X110184314Y-99300000D01*
X110172359Y-99311955D01*
X110114835Y-99424852D01*
X110095014Y-99550000D01*
X110114835Y-99675148D01*
X110172359Y-99788045D01*
X110184314Y-99800000D01*
X109121734Y-99800000D01*
X109156525Y-99961433D01*
X109245383Y-100182562D01*
X109370333Y-100385494D01*
X109527780Y-100564389D01*
X109527786Y-100564396D01*
X109713194Y-100714102D01*
X109713204Y-100714109D01*
X109921248Y-100830331D01*
X110145947Y-100909722D01*
X110145961Y-100909726D01*
X110380832Y-100949999D01*
X110380843Y-100950000D01*
X111350000Y-100950000D01*
X111350000Y-99950000D01*
X111850000Y-99950000D01*
X111850000Y-100950000D01*
X112759478Y-100950000D01*
X112937450Y-100934852D01*
X112937453Y-100934851D01*
X113168078Y-100874802D01*
X113385241Y-100776639D01*
X113385244Y-100776637D01*
X113582688Y-100643187D01*
X113582690Y-100643185D01*
X113754736Y-100478293D01*
X113896450Y-100286683D01*
X114003742Y-100073884D01*
X114073524Y-99846020D01*
X114079418Y-99800000D01*
X113015686Y-99800000D01*
X113027641Y-99788045D01*
X113085165Y-99675148D01*
X113104986Y-99550000D01*
X113085165Y-99424852D01*
X113027641Y-99311955D01*
X113015686Y-99300000D01*
X114078266Y-99300000D01*
X114078265Y-99299999D01*
X114043474Y-99138566D01*
X113954616Y-98917437D01*
X113829666Y-98714505D01*
X113672219Y-98535610D01*
X113672213Y-98535603D01*
X113486805Y-98385897D01*
X113486795Y-98385890D01*
X113278751Y-98269668D01*
X113054052Y-98190277D01*
X113054038Y-98190273D01*
X112819167Y-98150000D01*
X111850000Y-98150000D01*
X111850000Y-99150000D01*
X111350000Y-99150000D01*
X111350000Y-98150000D01*
X110440522Y-98150000D01*
X110262549Y-98165147D01*
X110262546Y-98165148D01*
X110031921Y-98225197D01*
X109814758Y-98323360D01*
X109814755Y-98323362D01*
X109617311Y-98456812D01*
X109617309Y-98456814D01*
X109445263Y-98621706D01*
X109303549Y-98813316D01*
X109196257Y-99026115D01*
X109126475Y-99253979D01*
X109120582Y-99300000D01*
X101713189Y-99300000D01*
X101650130Y-99151610D01*
X101509018Y-98920390D01*
X101419747Y-98813119D01*
X101335746Y-98712180D01*
X101335740Y-98712175D01*
X101134002Y-98531418D01*
X100908092Y-98381957D01*
X100842172Y-98351055D01*
X100662824Y-98266980D01*
X100662819Y-98266978D01*
X100662814Y-98266976D01*
X100403442Y-98188942D01*
X100403428Y-98188939D01*
X100287791Y-98171921D01*
X100135439Y-98149500D01*
X99932369Y-98149500D01*
X99932364Y-98149500D01*
X99729844Y-98164323D01*
X99729831Y-98164325D01*
X99465453Y-98223217D01*
X99465446Y-98223220D01*
X99212439Y-98319987D01*
X98976226Y-98452557D01*
X98976224Y-98452558D01*
X98976223Y-98452559D01*
X98970713Y-98456814D01*
X98761822Y-98618112D01*
X98573822Y-98813109D01*
X98573816Y-98813116D01*
X98416202Y-99033419D01*
X98416199Y-99033424D01*
X98292350Y-99274309D01*
X98292343Y-99274327D01*
X98204884Y-99530685D01*
X98204882Y-99530695D01*
X98157348Y-99788045D01*
X98155681Y-99797068D01*
X98155680Y-99797075D01*
X98145787Y-100067763D01*
X95300500Y-100067763D01*
X95300500Y-98000004D01*
X205244592Y-98000004D01*
X205264196Y-98261620D01*
X205264197Y-98261625D01*
X205322576Y-98517402D01*
X205322578Y-98517411D01*
X205322580Y-98517416D01*
X205418432Y-98761643D01*
X205549614Y-98988857D01*
X205658655Y-99125590D01*
X205713198Y-99193985D01*
X205889289Y-99357372D01*
X205905521Y-99372433D01*
X206122296Y-99520228D01*
X206122301Y-99520230D01*
X206122302Y-99520231D01*
X206122303Y-99520232D01*
X206184118Y-99550000D01*
X206358673Y-99634061D01*
X206358674Y-99634061D01*
X206358677Y-99634063D01*
X206609385Y-99711396D01*
X206868818Y-99750500D01*
X207131182Y-99750500D01*
X207390615Y-99711396D01*
X207641323Y-99634063D01*
X207877704Y-99520228D01*
X208094479Y-99372433D01*
X208286805Y-99193981D01*
X208450386Y-98988857D01*
X208581568Y-98761643D01*
X208677420Y-98517416D01*
X208735802Y-98261630D01*
X208738532Y-98225197D01*
X208755408Y-98000004D01*
X210244592Y-98000004D01*
X210264196Y-98261620D01*
X210264197Y-98261625D01*
X210322576Y-98517402D01*
X210322578Y-98517411D01*
X210322580Y-98517416D01*
X210418432Y-98761643D01*
X210549614Y-98988857D01*
X210658655Y-99125590D01*
X210713198Y-99193985D01*
X210889289Y-99357372D01*
X210905521Y-99372433D01*
X211122296Y-99520228D01*
X211122301Y-99520230D01*
X211122302Y-99520231D01*
X211122303Y-99520232D01*
X211184118Y-99550000D01*
X211358673Y-99634061D01*
X211358674Y-99634061D01*
X211358677Y-99634063D01*
X211609385Y-99711396D01*
X211868818Y-99750500D01*
X212131182Y-99750500D01*
X212390615Y-99711396D01*
X212641323Y-99634063D01*
X212877704Y-99520228D01*
X213094479Y-99372433D01*
X213286805Y-99193981D01*
X213450386Y-98988857D01*
X213581568Y-98761643D01*
X213677420Y-98517416D01*
X213735802Y-98261630D01*
X213738532Y-98225197D01*
X213755408Y-98000004D01*
X213755408Y-97999995D01*
X213735803Y-97738379D01*
X213735802Y-97738374D01*
X213735802Y-97738370D01*
X213677420Y-97482584D01*
X213581568Y-97238357D01*
X213450386Y-97011143D01*
X213286805Y-96806019D01*
X213286804Y-96806018D01*
X213286801Y-96806014D01*
X213094479Y-96627567D01*
X212877704Y-96479772D01*
X212877700Y-96479770D01*
X212877697Y-96479768D01*
X212877696Y-96479767D01*
X212641325Y-96365938D01*
X212641327Y-96365938D01*
X212390623Y-96288606D01*
X212390619Y-96288605D01*
X212390615Y-96288604D01*
X212265823Y-96269794D01*
X212131187Y-96249500D01*
X212131182Y-96249500D01*
X211868818Y-96249500D01*
X211868812Y-96249500D01*
X211707247Y-96273853D01*
X211609385Y-96288604D01*
X211609382Y-96288605D01*
X211609376Y-96288606D01*
X211358673Y-96365938D01*
X211122303Y-96479767D01*
X211122302Y-96479768D01*
X210905520Y-96627567D01*
X210713198Y-96806014D01*
X210549614Y-97011143D01*
X210418432Y-97238356D01*
X210322582Y-97482578D01*
X210322576Y-97482597D01*
X210264197Y-97738374D01*
X210264196Y-97738379D01*
X210244592Y-97999995D01*
X210244592Y-98000004D01*
X208755408Y-98000004D01*
X208755408Y-97999995D01*
X208735803Y-97738379D01*
X208735802Y-97738374D01*
X208735802Y-97738370D01*
X208677420Y-97482584D01*
X208581568Y-97238357D01*
X208450386Y-97011143D01*
X208286805Y-96806019D01*
X208286804Y-96806018D01*
X208286801Y-96806014D01*
X208094479Y-96627567D01*
X207877704Y-96479772D01*
X207877700Y-96479770D01*
X207877697Y-96479768D01*
X207877696Y-96479767D01*
X207641325Y-96365938D01*
X207641327Y-96365938D01*
X207390623Y-96288606D01*
X207390619Y-96288605D01*
X207390615Y-96288604D01*
X207265823Y-96269794D01*
X207131187Y-96249500D01*
X207131182Y-96249500D01*
X206868818Y-96249500D01*
X206868812Y-96249500D01*
X206707247Y-96273853D01*
X206609385Y-96288604D01*
X206609382Y-96288605D01*
X206609376Y-96288606D01*
X206358673Y-96365938D01*
X206122303Y-96479767D01*
X206122302Y-96479768D01*
X205905520Y-96627567D01*
X205713198Y-96806014D01*
X205549614Y-97011143D01*
X205418432Y-97238356D01*
X205322582Y-97482578D01*
X205322576Y-97482597D01*
X205264197Y-97738374D01*
X205264196Y-97738379D01*
X205244592Y-97999995D01*
X205244592Y-98000004D01*
X95300500Y-98000004D01*
X95300500Y-95367682D01*
X176994357Y-95367682D01*
X177014890Y-95615489D01*
X177014892Y-95615501D01*
X177075936Y-95856558D01*
X177175826Y-96084283D01*
X177311833Y-96292459D01*
X177311836Y-96292462D01*
X177480256Y-96475415D01*
X177676491Y-96628151D01*
X177895190Y-96746505D01*
X178130386Y-96827248D01*
X178375665Y-96868177D01*
X178624335Y-96868177D01*
X178869614Y-96827248D01*
X179104810Y-96746505D01*
X179323509Y-96628151D01*
X179519744Y-96475415D01*
X179688164Y-96292462D01*
X179824173Y-96084284D01*
X179924063Y-95856558D01*
X179985108Y-95615498D01*
X180005643Y-95367677D01*
X180003447Y-95341177D01*
X180017527Y-95272740D01*
X180039342Y-95243254D01*
X180295778Y-94986819D01*
X180357101Y-94953334D01*
X180383459Y-94950500D01*
X212484217Y-94950500D01*
X212551256Y-94970185D01*
X212571898Y-94986819D01*
X215228105Y-97643026D01*
X215261590Y-97704349D01*
X215264077Y-97739973D01*
X215244592Y-97999995D01*
X215244592Y-98000004D01*
X215264196Y-98261620D01*
X215264197Y-98261625D01*
X215322576Y-98517402D01*
X215322578Y-98517411D01*
X215322580Y-98517416D01*
X215418432Y-98761643D01*
X215549614Y-98988857D01*
X215658655Y-99125590D01*
X215713198Y-99193985D01*
X215889289Y-99357372D01*
X215905521Y-99372433D01*
X216122296Y-99520228D01*
X216122301Y-99520230D01*
X216122302Y-99520231D01*
X216122303Y-99520232D01*
X216184118Y-99550000D01*
X216358673Y-99634061D01*
X216358674Y-99634061D01*
X216358677Y-99634063D01*
X216609385Y-99711396D01*
X216868818Y-99750500D01*
X217131182Y-99750500D01*
X217390615Y-99711396D01*
X217641323Y-99634063D01*
X217877704Y-99520228D01*
X218094479Y-99372433D01*
X218174867Y-99297844D01*
X220250000Y-99297844D01*
X220256401Y-99357372D01*
X220256403Y-99357379D01*
X220306645Y-99492086D01*
X220306649Y-99492093D01*
X220392809Y-99607187D01*
X220392812Y-99607190D01*
X220507906Y-99693350D01*
X220507913Y-99693354D01*
X220642620Y-99743596D01*
X220642627Y-99743598D01*
X220702155Y-99749999D01*
X220702172Y-99750000D01*
X221750000Y-99750000D01*
X221750000Y-98604310D01*
X221758817Y-98609158D01*
X221917886Y-98650000D01*
X222040894Y-98650000D01*
X222162933Y-98634583D01*
X222250000Y-98600110D01*
X222250000Y-99750000D01*
X223297828Y-99750000D01*
X223297844Y-99749999D01*
X223357372Y-99743598D01*
X223357379Y-99743596D01*
X223492086Y-99693354D01*
X223492093Y-99693350D01*
X223607187Y-99607190D01*
X223607190Y-99607187D01*
X223693350Y-99492093D01*
X223693354Y-99492086D01*
X223743596Y-99357379D01*
X223743598Y-99357372D01*
X223749999Y-99297844D01*
X223750000Y-99297827D01*
X223750000Y-98250000D01*
X222600728Y-98250000D01*
X222623100Y-98202457D01*
X222653873Y-98041138D01*
X222643561Y-97877234D01*
X222602220Y-97750000D01*
X223750000Y-97750000D01*
X223750000Y-96702172D01*
X223749999Y-96702155D01*
X223743598Y-96642627D01*
X223743596Y-96642620D01*
X223693354Y-96507913D01*
X223693350Y-96507906D01*
X223607190Y-96392812D01*
X223607187Y-96392809D01*
X223492093Y-96306649D01*
X223492086Y-96306645D01*
X223357379Y-96256403D01*
X223357372Y-96256401D01*
X223297844Y-96250000D01*
X222250000Y-96250000D01*
X222250000Y-97395689D01*
X222241183Y-97390842D01*
X222082114Y-97350000D01*
X221959106Y-97350000D01*
X221837067Y-97365417D01*
X221750000Y-97399889D01*
X221750000Y-96250000D01*
X220702155Y-96250000D01*
X220642627Y-96256401D01*
X220642620Y-96256403D01*
X220507913Y-96306645D01*
X220507906Y-96306649D01*
X220392812Y-96392809D01*
X220392809Y-96392812D01*
X220306649Y-96507906D01*
X220306645Y-96507913D01*
X220256403Y-96642620D01*
X220256401Y-96642627D01*
X220250000Y-96702155D01*
X220250000Y-97750000D01*
X221399272Y-97750000D01*
X221376900Y-97797543D01*
X221346127Y-97958862D01*
X221356439Y-98122766D01*
X221397780Y-98250000D01*
X220250000Y-98250000D01*
X220250000Y-99297844D01*
X218174867Y-99297844D01*
X218286805Y-99193981D01*
X218450386Y-98988857D01*
X218581568Y-98761643D01*
X218677420Y-98517416D01*
X218735802Y-98261630D01*
X218738532Y-98225197D01*
X218755408Y-98000004D01*
X218755408Y-97999995D01*
X218735803Y-97738379D01*
X218735802Y-97738374D01*
X218735802Y-97738370D01*
X218677420Y-97482584D01*
X218581568Y-97238357D01*
X218450386Y-97011143D01*
X218286805Y-96806019D01*
X218286804Y-96806018D01*
X218286801Y-96806014D01*
X218094479Y-96627567D01*
X217877704Y-96479772D01*
X217877700Y-96479770D01*
X217877697Y-96479768D01*
X217877696Y-96479767D01*
X217641325Y-96365938D01*
X217641327Y-96365938D01*
X217390623Y-96288606D01*
X217390619Y-96288605D01*
X217390615Y-96288604D01*
X217265823Y-96269794D01*
X217131187Y-96249500D01*
X217131182Y-96249500D01*
X216868818Y-96249500D01*
X216868812Y-96249500D01*
X216753092Y-96266943D01*
X216683867Y-96257470D01*
X216646929Y-96232009D01*
X213666452Y-93251532D01*
X213605061Y-93186949D01*
X213605060Y-93186948D01*
X213605059Y-93186947D01*
X213577204Y-93167559D01*
X213554709Y-93151902D01*
X213550946Y-93149064D01*
X213503413Y-93110305D01*
X213503406Y-93110300D01*
X213472959Y-93094397D01*
X213466251Y-93090334D01*
X213438049Y-93070705D01*
X213438046Y-93070703D01*
X213438045Y-93070703D01*
X213438041Y-93070701D01*
X213381680Y-93046514D01*
X213377424Y-93044493D01*
X213323057Y-93016094D01*
X213323050Y-93016091D01*
X213323049Y-93016091D01*
X213317008Y-93014362D01*
X213290030Y-93006642D01*
X213282630Y-93004008D01*
X213251057Y-92990459D01*
X213251058Y-92990459D01*
X213190966Y-92978109D01*
X213186391Y-92976986D01*
X213127420Y-92960113D01*
X213127425Y-92960113D01*
X213093158Y-92957503D01*
X213085380Y-92956412D01*
X213051742Y-92949500D01*
X213051741Y-92949500D01*
X212990402Y-92949500D01*
X212985695Y-92949321D01*
X212980121Y-92948896D01*
X212924524Y-92944662D01*
X212904589Y-92947201D01*
X212890440Y-92949003D01*
X212882611Y-92949500D01*
X179930376Y-92949500D01*
X179841316Y-92947242D01*
X179841312Y-92947242D01*
X179790153Y-92956412D01*
X179780931Y-92958064D01*
X179776272Y-92958718D01*
X179715241Y-92964925D01*
X179715239Y-92964926D01*
X179682457Y-92975210D01*
X179674833Y-92977081D01*
X179671734Y-92977637D01*
X179641026Y-92983141D01*
X179584058Y-93005895D01*
X179579622Y-93007474D01*
X179521091Y-93025840D01*
X179521087Y-93025842D01*
X179491055Y-93042510D01*
X179483961Y-93045879D01*
X179452059Y-93058623D01*
X179452054Y-93058625D01*
X179400833Y-93092381D01*
X179396805Y-93094822D01*
X179343178Y-93124588D01*
X179317111Y-93146965D01*
X179310842Y-93151692D01*
X179282161Y-93170595D01*
X179282155Y-93170600D01*
X179238786Y-93213968D01*
X179235332Y-93217169D01*
X179188781Y-93257134D01*
X179167752Y-93284300D01*
X179162561Y-93290193D01*
X178621898Y-93830858D01*
X178560575Y-93864343D01*
X178534217Y-93867177D01*
X178375665Y-93867177D01*
X178130383Y-93908106D01*
X177895197Y-93988846D01*
X177895188Y-93988849D01*
X177676493Y-94107201D01*
X177480257Y-94259938D01*
X177311833Y-94442894D01*
X177175826Y-94651070D01*
X177075936Y-94878795D01*
X177014892Y-95119852D01*
X177014890Y-95119864D01*
X176994357Y-95367671D01*
X176994357Y-95367682D01*
X95300500Y-95367682D01*
X95300500Y-95001722D01*
X95300598Y-94998245D01*
X95310213Y-94827027D01*
X95317278Y-94701216D01*
X95318054Y-94694330D01*
X95367597Y-94402740D01*
X95369145Y-94395957D01*
X95408331Y-94259939D01*
X95451023Y-94111750D01*
X95453321Y-94105189D01*
X95501510Y-93988849D01*
X95566507Y-93831931D01*
X95569510Y-93825696D01*
X95712583Y-93566824D01*
X95716279Y-93560943D01*
X95887438Y-93319716D01*
X95891752Y-93314306D01*
X96088845Y-93093760D01*
X96093763Y-93088843D01*
X96314306Y-92891752D01*
X96319716Y-92887438D01*
X96560943Y-92716279D01*
X96566824Y-92712583D01*
X96825696Y-92569510D01*
X96831931Y-92566507D01*
X97038069Y-92481122D01*
X97105189Y-92453321D01*
X97111750Y-92451023D01*
X97395961Y-92369144D01*
X97402741Y-92367597D01*
X97694330Y-92318054D01*
X97701216Y-92317278D01*
X97863426Y-92308168D01*
X97998246Y-92300598D01*
X98001723Y-92300500D01*
X231952405Y-92300500D01*
X231998258Y-92300500D01*
X232001735Y-92300598D01*
G37*
%TD.AperFunction*%
%TD*%
M02*
